<svg xmlns="http://www.w3.org/2000/svg" xmlns:xlink="http://www.w3.org/1999/xlink" width="251.238" height="251.17" viewBox="0 0 235.536 235.472"><text xml:space="preserve" style="font-style:normal;font-weight:400;font-size:136.91362px;line-height:125%;font-family:sans-serif;letter-spacing:0;word-spacing:0;fill:#000;fill-opacity:1;stroke:none;stroke-width:1px;stroke-linecap:butt;stroke-linejoin:miter;stroke-opacity:1" transform="translate(-266.668 -465.667)"><textPath xlink:href="#path3533"/></text><path transform="matrix(.34661 0 0 .34661 -270.136 -28.647)" d="M1120.057 149.57a275.772 275.772 0 0 0-4.026.143c1.115-.003 2.06-.011 3.242-.012 1.274 0 2.462.011 3.696.016a275.772 275.772 0 0 0-2.912-.147zm-3.29 4.11c-.31-.004-.644.002-.998.017-1.698.077-3.89.382-6.554.914-4.789.958-4.932 1.23-4.932 9.467 0 5.155.687 8.483 1.75 8.483 1.078 0 1.368-1.515.758-3.946-.947-3.772-.678-3.945 6.14-3.945 4.079 0 7.132-.733 7.132-1.713 0-1.046-2.598-1.507-6.672-1.184-5.353.426-6.78-.015-7.217-2.23-.455-2.307.644-2.762 6.672-2.762 3.969 0 7.217-.71 7.217-1.578 0-.989-1.119-1.497-3.295-1.523zm21.376.447c-2.572-.02-3.88.314-3.88.998 0 .911 1.776 1.656 3.946 1.656 3.727 0 3.955.5 4.146 9.073l.204 9.074 1.554-9.074c1.495-8.725 1.74-9.073 6.373-9.073 7.49 0 4.501-1.05-6.359-2.236-2.444-.267-4.442-.406-5.984-.418zm-15.524.002c-.547-.033-.978 3.81-.978 8.963 0 5.496.295 9.7.654 9.338 1.173-1.18 1.553-17.124.435-18.242a.175.175 0 0 0-.11-.06zm-35.045 1.523a.209.209 0 0 0-.107.063c-.44.44-.252 4.942.42 10.006.67 5.063 1.508 7.88 1.86 6.26.752-3.472-1.04-16.536-2.173-16.329zm71.356 1.131c-.934-.014-1.596.07-1.809.283-.366.366-1.133 4.661-1.707 9.543l-1.045 8.877 5.332.65c9.895 1.21 11.044 1.163 10.067-.42-.537-.867-3.378-1.577-6.313-1.577-5.754 0-7.62-1.544-6.234-5.155.668-1.741 2.351-2.011 7.105-1.142 3.427.626 6.23.587 6.23-.088 0-.675-2.84-1.708-6.312-2.295-5.598-.946-7.906-3.401-5.478-5.828.457-.458 3.652-.316 7.1.314 3.447.63 6.269.575 6.269-.123 0-1.091-9.161-2.979-13.205-3.039zm-81 1.252c-4.684-.055-11.013.83-12.758 2.278-1.137.943-1.855 3.198-1.596 5.01.43 3.009 1.333 3.247 10.473 2.767 8.946-.47 9.946-.224 9.455 2.326-.68 3.535-13.318 6.198-16.576 3.494-2.188-1.816-2.984.366-.909 2.49 1.256 1.285 15.185.114 17.79-1.496 2.385-1.474 1.816-8.211-.778-9.207-1.272-.489-5.89-.466-10.256.051-5.525.654-7.94.382-7.94-.896 0-2.664 7.846-5.25 13.835-4.559 3.15.363 4.925-.051 4.566-1.064-.28-.79-2.496-1.16-5.306-1.194zm14.263.613c-.179-.082-.268.911-.326 2.868-.09 3.037.273 7.147.805 9.134 1.734 6.476 2.223 2.601.773-6.132-.644-3.884-1.022-5.764-1.252-5.87zm86.096 1.006c-.537.04-2.352 4.305-3.83 9.909-2.549 9.662-1.885 12.077 1.225 4.457l2.128-5.22 5.315 6.614c2.923 3.637 5.966 6.613 6.762 6.613.795 0-.72-2.734-3.368-6.076l-4.812-6.076 6.258-2.066c3.442-1.136 6.26-2.672 6.26-3.412 0-.741-2.574-.273-5.717 1.04-9.025 3.771-11.906 3.244-10.66-1.95.65-2.715.72-3.853.44-3.833zm-121.764 1.862c-.822 0-1.015 1.24-.427 2.76 1.784 4.612 2.881 11.44 1.837 11.44-.54 0-4.382-2.443-8.539-5.429-10.352-7.437-12.61-5.9-9.095 6.192 3.101 10.668 5.265 10.58 2.574-.106-1.018-4.044-1.608-7.595-1.313-7.89.296-.296 4.733 2.25 9.862 5.656 5.128 3.405 9.647 5.867 10.043 5.47 1.237-1.237-3.366-18.093-4.942-18.093zm145.008 5.234c-1.47-.078-2.793 1.895-3.996 5.91-1.078 3.597-2.367 7.708-2.867 9.137-.615 1.758-.385 2.087.71 1.02.892-.868 2.47-4.24 3.51-7.495 1.04-3.254 2.376-5.918 2.967-5.918.592 0 2.744 4.65 4.782 10.332 2.038 5.683 4.462 10.079 5.388 9.77 2.013-.671 7.796-16.945 6.022-16.945-.678 0-2.11 2.927-3.182 6.505-2.242 7.486-3.434 6.847-7.719-4.138-2.092-5.366-3.949-8.09-5.615-8.178zm-167.76 2.91c-.462-.02-.51.584-.088 1.688.52 1.354 1.818 5.38 2.887 8.947 1.069 3.567 2.283 6.147 2.697 5.732 1.153-1.153-3.047-14.989-4.898-16.132-.244-.151-.444-.228-.598-.235zm-4.6.174c-.516.062-1.634 1.566-3.142 4.729l-2.644 5.548-5.483-2.289c-3.015-1.26-5.887-1.886-6.38-1.392-.495.494 2.012 2.042 5.57 3.44 4.364 1.713 6.776 3.762 7.412 6.294.518 2.065 1.639 3.754 2.49 3.754 1.965 0 1.954-1.035-.062-4.803-1.172-2.19-.951-4.605.809-8.816 1.77-4.238 2.098-6.544 1.433-6.465zm196.983 6.174c-1.313.038-2.133.768-3.588 2.223-1.66 1.66-3.468 5.267-4.017 8.015-.917 4.584-.497 5.262 5.09 8.21 7.562 3.988 10.466 4.115 13.494.589 6.618-7.706 5.13-13.463-4.422-17.111-3.434-1.312-5.243-1.965-6.557-1.926zm-.388 1.236 5.87 2.453c7.717 3.224 8.759 5.282 5.5 10.86-1.486 2.546-3.407 4.832-4.267 5.078-1.948.557-13.403-5.375-13.393-6.938 0-.63 1.421-3.464 3.149-6.299l3.14-5.154zm-227.258 5.664a.444.444 0 0 0-.188.057c-.736.455-1.338 5.52-1.338 11.254s.533 9.893 1.184 9.242c.65-.651 1.184-1.95 1.184-2.889 0-.938 2.464-3.08 5.476-4.763 4.265-2.383 6.096-2.673 8.283-1.307 1.545.964 2.809 1.139 2.809.387 0-1.96-15.05-12.219-17.41-11.98zm1.236 2.328c1.495.067 8.947 6.215 8.113 6.694-5.626 3.232-7.537 3.954-8.338 3.154-1.379-1.38-1.184-9.91.225-9.848zm247.623 1.248c-1.37.294-8.96 12.827-8.96 15.05 0 .512 2.66 2.338 5.915 4.056s6.493 3.155 7.195 3.193c2.632.144-.593-2.747-5.187-4.65-5.65-2.34-5.812-3.477-1.482-10.483 1.807-2.924 3.025-6.098 2.707-7.054-.032-.096-.096-.131-.188-.112zm-270.316 9.032c-.195.008-.335.055-.41.146-.617.746-.845 5.795-.506 11.219.338 5.424 1.262 9.861 2.052 9.861.791 0 1.438-1.35 1.438-3 0-4.24 9.232-9.86 12.94-7.877 1.561.836 2.84.952 2.84.256 0-1.988-15.436-10.718-18.354-10.605zm288.34.933c-2.358-.16-4.149 1.13-6.358 3.938-4.49 5.709-4.108 9.058 1.584 13.847 6.767 5.695 11.488 5.312 15.549-1.26 3.936-6.368 3.12-9.289-3.783-13.556-2.982-1.843-5.159-2.845-6.992-2.969zm-286.202 1.606c.803-.01 2.164.81 4.465 2.318 3.674 2.407 3.743 2.7 1.127 4.686-4.525 3.433-6.734 2.607-6.734-2.518 0-3.082.11-4.473 1.142-4.486zm285.99.664c1.509.056 3.27.82 5.53 2.217 6.184 3.822 6.781 6.176 3.02 11.918-3.26 4.973-5.05 4.891-11.544-.53-4.516-3.77-5.04-4.889-3.576-7.625 2.247-4.198 4.057-6.073 6.57-5.98zM964.72 205.67c-2.33.122-6.076 1.923-9.494 4.924-6.11 5.364-6.838 7.873-3.164 10.922 2.012 1.67 3.59 1.16 9.464-3.059 6.742-4.842 10.313-5.273 10.125-1.226-.13 2.824-9.435 9.646-12.808 9.392-1.623-.122-2.54.444-2.035 1.26 1.585 2.565 5.041 1.631 10.47-2.83 7.027-5.775 7.656-6.866 5.873-10.197-2.105-3.934-5.698-3.564-11.992 1.236-4.958 3.782-9.933 4.24-9.933.914 0-2.29 12.285-10.127 14.109-9 .919.568 1.67.28 1.67-.639 0-1.239-.888-1.77-2.285-1.697zm320.263 4.76c-2.365 0-10.283 9.405-10.283 12.215 0 .913 2.51 3.865 5.578 6.558 3.068 2.694 6.926 4.897 8.573 4.897 3.21 0 9.52-7.636 9.52-11.52 0-2.844-10.254-12.15-13.388-12.15zm.713 3.334c2.056.028 4.186 1.461 6.998 4.396 4.219 4.403 4.284 4.72 1.778 8.545-3.741 5.71-5.981 6.02-11.62 1.608-5.653-4.425-6.327-8.298-2.109-12.116 1.8-1.628 3.354-2.455 4.953-2.433zm-347.658 11.658 5.149 6.705c2.831 3.688 5.798 6.707 6.593 6.707 2.256 0 1.876-.531-5.148-7.176l-6.594-6.236zm-3.119 3.154 5.39 6.678c2.966 3.673 5.926 6.691 6.577 6.707 1.977.047 1.435-.67-5.393-7.147l-6.574-6.238zm-.979 3.188c-.66-.14-3.401 1.79-7.173 5.492-7.132 6.999-10.28 13.003-3.457 6.594l3.644-3.422 5.344 5.513c2.94 3.033 6.06 5.516 6.933 5.516.874 0-1.167-2.822-4.535-6.271-5.8-5.94-5.984-6.426-3.476-9.198 2.492-2.753 3.235-4.115 2.72-4.224zm361.205 2.672a1.22 1.22 0 0 0-.351.066c-3.281 1.094-2.872 3.93 1.283 8.867 2.283 2.713 5.564 4.932 7.29 4.932 3.42 0 12.36-8.056 12.36-11.137 0-1.051-1.476-.036-3.279 2.256-5.601 7.121-9.056 8.122-13.527 3.922-2.353-2.21-3.59-4.79-3.133-6.537.384-1.467.112-2.389-.643-2.37zm24.231 6.148c-1.327-.2-13.058 10.008-13.088 11.473-.016.763 3.034-1.367 6.777-4.735 3.744-3.367 6.627-6.376 6.407-6.685a.136.136 0 0 0-.096-.053zm3.451 2.42-6.683 5.13c-3.677 2.823-7.091 5.79-7.588 6.595-2.38 3.85 2.467.754 8.035-5.131l6.236-6.594zm-405.336 5.355c-.762-.032 1.724 2.711 5.524 6.096 3.8 3.385 7.246 5.827 7.66 5.428.9-.869-11.193-11.439-13.184-11.524zm-3.156 3.122c-.763-.013 1.723 2.745 5.523 6.13s7.264 5.804 7.698 5.375c.93-.918-11.196-11.471-13.221-11.505zm-.99 4.488c-2.155.007-6.107 2.893-9.332 7.385-4.17 5.806-4.782 7.597-3.23 9.466 3.192 3.848 7.61 2.611 11.374-3.183 4.169-6.418 7.248-8.075 8.574-4.617 1.118 2.912-3.894 10.174-8.703 12.613-1.864.945-2.919 2.188-2.345 2.762 1.951 1.951 3.424 1.046 9.123-5.612 6.084-7.108 6.53-10.11 1.918-12.9-2.452-1.483-3.82-.679-9.032 5.316-4.706 5.414-6.574 6.633-7.996 5.211-1.421-1.422-1.273-2.745.637-5.66 3.794-5.79 7.536-9.11 9.148-8.113.798.493 1.452.143 1.452-.776 0-1.304-.609-1.896-1.588-1.892zm420.826 4.535c-5.68.056-18.443 2.516-18.443 3.982 0 .761 1.322.965 2.939.452 4.108-1.304 11.597 8.402 9.447 12.244-.824 1.473-.9 2.677-.17 2.677 2.052 0 10.226-17.652 8.784-18.968-.313-.285-1.246-.4-2.557-.387zm-3.436 2.033c2.036-.116 3.915.234 3.871 1.149-.03.65-.958 2.81-2.062 4.798-1.994 3.592-2.027 3.596-4.834.495-1.554-1.718-2.357-3.877-1.787-4.8.584-.945 2.777-1.526 4.812-1.642zm14.905 10.795-5.883 3.508c-10.148 6.049-10.19 6.172-5.026 14.459 2.942 4.72 5.794 7.496 7.704 7.496 2.995 0 12.74-7.113 12.74-9.299 0-.62-2.146-4.512-4.768-8.646l-4.767-7.518zm-.52 3.961c.141-.008.248.008.315.05.584.373 2.46 3.303 4.168 6.51l3.107 5.833-4.379 3.765c-2.408 2.071-5.039 3.766-5.848 3.766-1.278 0-9.398-11.426-9.398-13.225 0-1.172 9.918-6.585 12.035-6.699zm-448.422.875c-3.035-.123-4.848 2.31-8.455 8.363l-3.506 5.885 7.489 4.75c4.119 2.612 7.876 4.364 8.347 3.893.808-.808-2.084-3.194-5.2-4.29-1.298-.455 6.475-13.753 8.038-13.753.376 0 2.118.767 3.871 1.705 1.753.942 3.536 1.357 3.961.931.426-.425-2.773-2.554-7.11-4.732-3.352-1.684-5.614-2.678-7.435-2.752zm.483 1.711c2.835-.028 2.424 3.163-1.166 9.053-3.179 5.213-5.393 6.344-7.08 3.613-1.231-1.992 5.702-12.641 8.246-12.666zm455.502 22.096c-5.138.067-10.131.608-10.131 1.554 0 .868 1.288 1.577 2.863 1.577 4.217 0 8.987 10.537 6.264 13.837-1.473 1.784-1.506 2.278-.125 1.805 2.693-.923 13.096-15.932 12.129-17.498-.58-.939-5.863-1.343-11-1.275zm-457.475 1.756c-1.643.009-3.837.158-6.652.447-5.83.597-10.864 1.351-11.188 1.676-.324.324 2.415 4.567 6.086 9.43 3.671 4.862 7.031 8.484 7.467 8.048.436-.436-.043-1.799-1.065-3.03-2.558-3.083 2.418-13.618 6.434-13.618 1.575 0 2.863-.808 2.863-1.795 0-.795-1.207-1.174-3.945-1.158zm460.863 1.375h5.563l-2.834 3.896c-3.572 4.908-4.279 4.912-6.494.049-1.733-3.802-1.596-3.946 3.765-3.946zm-475.925 1.578h5.525c5.32 0 5.46.146 3.728 3.945-.988 2.17-2.312 3.945-2.941 3.945s-2.305-1.775-3.727-3.945l-2.585-3.945zm-8.346 12.625c-.938 0 1.299 3.06 4.97 6.8 3.672 3.742 6.187 7.293 5.588 7.891-.598.598-3.987 1.098-7.53 1.111-3.545.014-7.51.778-8.811 1.698-1.714 1.21.465 1.391 7.89.656 5.641-.559 10.864-1.61 11.608-2.338 1.484-1.453-10.971-15.818-13.715-15.818zm490.562 4.955a78.066 78.066 0 0 0-3.242.013c-4.34.107-6.386.49-4.547.852 3.655.718 9.327 12.412 6.783 13.984-.795.492-1.43 1.74-1.41 2.774.043 2.181 14.164-12.19 14.164-14.414 0-1.883-4.547-3.086-11.748-3.21zm3.69 2.933c5.589 0 6.17 1.52 2.017 5.278-3.225 2.919-5.004 3.334-5.004 1.164 0-.797-.432-2.573-.959-3.946-.746-1.946.124-2.496 3.946-2.496zm11.748 13.774c-1.339.003-3.56.553-7.516 1.654-4.838 1.347-8.797 3.043-8.797 3.768 0 1.637-.62 1.711 8.283-.99 4.123-1.252 7.497-1.743 7.497-1.092 0 .65-2.811 3.926-6.247 7.28-3.435 3.356-5.954 6.575-5.595 7.155.358.58 4.691 1.958 9.627 3.063 9.695 2.17 9.299 3.896-1.303 5.687-3.272.553-5.951 1.7-5.951 2.55 0 .85 1.243 1.188 2.762.75l9.511-2.735c3.713-1.068 6.508-2.665 6.213-3.551-.46-1.382-3.124-2.449-16.508-6.615-1.162-.362.719-3.118 4.6-6.739 4.227-3.943 6.234-6.988 5.635-8.55-.42-1.092-.873-1.638-2.211-1.635zm-514.377.566c-.477-.003-.516.27-.037.793.722.79 3.916 2.248 7.1 3.242 6.48 2.024 9.732 2.495 9.732 1.41 0-.4-2.885-1.505-6.41-2.455-3.526-.949-7.608-2.153-9.073-2.677-.582-.209-1.026-.31-1.312-.313zm-.942 4.596c-3.895 0 1.238 3.022 6.7 3.945 3.467.586 6.28 1.535 6.252 2.11-.03.574-4.353 2.987-9.608 5.36-10.803 4.881-11.301 7.354-2.049 10.145 3.402 1.027 7.606 1.91 9.342 1.963 5.06.156-.395-2.667-7.463-3.861-3.272-.553-5.949-1.556-5.949-2.229s4.236-3.125 9.414-5.449c5.178-2.323 9.814-4.87 10.303-5.662.76-1.23-12.887-6.322-16.942-6.322zm-5.007 25.064c-3.066.096-1.532.891 4.6 2.309 6.709 1.551 7.959 2.428 8.359 5.86.258 2.218-.245 5.915-1.12 8.214-1.495 3.935-2.078 4.137-9.937 3.479-6.104-.512-7.288-.323-4.404.699 2.17.769 6.227 1.469 9.017 1.555 5.648.175 7.296-1.881 8.979-11.207.9-4.992.53-6.183-2.553-8.16-1.984-1.274-5.738-2.447-8.342-2.608-2.044-.127-3.577-.173-4.6-.14zm512.222 3.559c-.65-.031-1.105.039-1.299.232-.46.46.562 1.28 2.272 1.823 4.14 1.313 5.591 11.562 2.193 15.476-3.851 4.436-.138 3.122 7.955-2.816 4.123-3.025 7.494-6.422 7.494-7.551 0-1.824-14.063-6.948-18.615-7.164zm7.367 4.64c2.102-.111 8.092 1.961 8.092 3.018 0 .674-1.697 2.339-3.773 3.7-3.635 2.38-3.807 2.314-4.596-1.792-.45-2.345-.61-4.477-.355-4.736.112-.115.332-.174.632-.19zm-524.87 16.754c-.243-.027-.378.102-.378.409 0 1.226 1.599 3.934 3.551 6.015l3.551 3.785-4.34 3.737c-2.386 2.055-4.34 4.15-4.34 4.656 0 1.407 5.523-1.86 7.819-4.627 1.12-1.35 4.611-2.566 7.76-2.705l5.724-.254-5.094-.633c-3.492-.434-6.591-2.453-9.861-6.42-1.967-2.386-3.666-3.881-4.393-3.963zm521 1.844a1.604 1.604 0 0 0-.467.004c-.127.027-.194.082-.194.17 0 .702 1.066 1.686 2.367 2.186 3.476 1.333 3.18 13.454-.394 16.168-5.214 3.958-.094 2.193 8.431-2.907 4.692-2.806 8.532-5.834 8.532-6.728 0-.894-4.26-3.51-9.467-5.81-3.987-1.763-7.419-2.942-8.809-3.083zm7.01 5.182c.847.062 2.223.608 4.456 1.463l4.442 1.7-3.725 3.034c-5.132 4.18-6.531 3.814-6.531-1.701 0-3.366-.055-4.6 1.357-4.496zm-535.366 11.172a275.772 275.772 0 0 0-.55 10.994 275.772 275.772 0 0 0 .618 17.46c-.064-4.975-.093-10.664-.093-17.773 0-3.934.009-7.449.025-10.681zm71.662 33.623.154.728h-26.966v11.045h64.695v-5.521c0-3.857.714-5.524 2.367-5.524s2.365 1.667 2.365 5.524v5.521h68.266l-.897-5.521c-.766-4.72-.452-5.524 2.16-5.524 2.442 0 3.057 1.113 3.057 5.524 0 5.26.262 5.521 5.522 5.521 3.037 0 5.523.623 5.523 1.385 0 2.394-4.376 5.14-7.377 4.629-2.421-.413-2.8.427-2.379 5.281.13 1.5.011 3.178-.306 4.914a48.415 48.415 0 0 1 3.15-1.52c.043-.104.082-.21.135-.308.141-.251.22-.423.402-.639.105-.123.218-.242.332-.357.79-1.518 1.66-2.982 2.404-3.81l.975-2.17c.343-.55.56-.915.793-1.29.013-.042.022-.085.035-.127.085-.95.38-1.83 1.256-2.658.146-.138.382-.347.605-.545.181-.219.32-.407.508-.625.132-.307.27-.612.404-.918.12-.272-.225.553-.337.828v.008c.116-.134.214-.24.326-.365.173-.24.366-.487.496-.613.034-.619.109-1.234.254-1.84.34-1.417 4.061-2.05 5.064-2.183.496-.067 1 0 1.5 0 1.746 0 3.223.272 4.434.73.01-.005.012-.01.018-.016.049-.008.153-.037.215-.05.31-.184.625-.356.964-.475.435-.151 1.405-.352 1.893-.395.266-.143.534-.28.814-.394.397-.163.84-.033 1.27.111.177.002.353-.01.531-.002.495-.006.988-.012 1.483-.011.118.002.237 0 .355 0 1.315-.619 3-.998 5.063-.998H1070.192c.234 0 .557-.001.744.006.047-.001.252.012.396.017.107-.088.248-.09.4-.056.01-.031.01-.062.017-.092.01-.042.29-.028.672.011.044-.02.09-.033.132-.058 2.13-1.253 2.945-1.178 3.024-.352.14-.04.168-.043.367-.101.259.088.247.079.477.156.304-.04.606-.05.908-.043.33-.106.99-.208 2.709-.613.112.04.224.085.336.127.703-.101 1.403.023 2.105.002-.45 0 .258-.001.688-.002.81-.257 1.707-.362 2.703-.627.383.059.626.09.892.127.149-.004.297-.012.446-.008.769-.34 1.563-.619 2.386-.62.11 0 .26.033.399.057.151-.103.31-.158.693-.225.834-.628 2.218-.882 3.543-.812.074-.03.148-.055.223-.082-.552-1.766-.528-1.813 1.59-1.813h1.092c.428.002.827 0 .886 0H1105.852c.51-.152.734-.118.988 0h1.533c.167 0 .485-.165.5 0h.376c0-.083.166 0 .25 0h2.851v.004c.68 0 1.11.013 1.371.098 1.208.138 2.253.42 3.139.809-.28-2.48-2.363-2.578-17.705-2.885-9.761-.196-20.77-.258-24.459-.139-1.895.062-3.604-.035-4.826-.236h-59.299l.027.728h-19.32l-.162-.728h-74.62zm155.236 7.316c0 .025-.01.05-.012.074l.09.004c.053-.005.108-.007.16-.015-.081-.03-.16-.046-.238-.063zm-.012.074c-.182-.009-.247-.012-.388-.017-.016.013-.033.026-.047.043.146.003.29-.008.433-.018v-.008zm-27.554 5.483c0 .025 0 .05-.01.076.03-.032.046-.045.074-.074 0-.003 0-.005.01-.008.058-.107.01-.073-.074.006zm-.01.076c-.148.154-.315.34-.49.537-.064.088-.158.193-.192.256-.04.075-.068.155-.101.232 0 .018.01.036.014.053.089-.075.174-.143.263-.215.173-.267.346-.532.502-.808v-.055zm-3.254 4.812v.073c.161-.257.356-.544.543-.785.07-.299.164-.614.287-.922l-.01.004a5.783 5.783 0 0 0-.822 1.63zm129.978-17.761c-.948.343-2.918.508-5.367.386-3.739-.188-15.185-.187-25.437 0-16.693.306-18.611.631-18.36 3.104.154 1.519.2 3.648.1 4.732v.004c-.116 1.262-.859 1.923-1.79 1.922a5.423 5.423 0 0 1-1.282 1.614c1.431 1.62 2.17 4.428 1.338 8.232h-.01c-.58 2.65-.69 5.364-.863 8.064 2.082 1.035 2.036 2.478 2.039 4.686v3.244c.01 1.184.02 2.366-.012 3.549-.03 1.738.058 3.472.086 5.205 1.44 2.273 1.17 2.703.014 2.28-.018 1.169-.177 2.33-.42 3.486a8.707 8.707 0 0 1-.692 4.26c-.222.733-.46 1.461-.695 2.19.672.006 1.342.666 1.957 2.286.529.033.966.115 1.168.307.26.246.5.51.73.78a682.027 682.027 0 0 1-.171-15.458c0-22.822.103-29.957 1.3-32.754-.522-.976-1.245-2.142-2.289-3.563-.179-.243-.237.56-.3.856-.238 1.113-.1 1.333.053 2.498-.64-2.847-.055-3.609 2.373-6.75.805-1.042 3.512-1.29 4.652-1.412 1.716.279 2.063.32 1.959.295-.18-.038-.765-.136-1.094-.168-.116-.011-.723.022.285-.022.392-.016.785-.01 1.176-.008.31-.212.636-.42.977-.62.33-.196.715-.141 1.107-.01.786-.279 1.627-.422 2.492-.491.257-.02.625.04.983.111.205 0 .411.003.61.008 1.03.03-.384.007.587.004.316.002.633.002.95.002 1.409-.907 3.391-1.497 5.96-1.5 1.981-.002 3.862-.177 5.76.662.533.236 1.155.475 1.62.838h.954c.338.174.658.322.969.46 1.09.057 2.163.683 3.113 1.456.209.145.402.312.58.496.365.333.692.67.998.99 1.21.062 1.744.23 2.494.598h1.514c2.571 0 4.555.59 5.965 1.498h4.914c.65-.167 1.334-.134 2.014 0h.687c.055-.002.085-.003.123-.006 1.506-2.646 5.633-3.51 10.293.008h2.502c4.772 0 7.535 2.022 8.307 4.37.953-.546 3.567-.946 6.676-.946 7.062 0 7.1-.028 7.1-5.521 0-3.857.713-5.524 2.366-5.524s2.368 1.667 2.368 5.524v5.521h67.851v-5.521c0-3.857.714-5.524 2.367-5.524s2.366 1.667 2.366 5.524v5.521h31.39c33.58 0 33.305.067 33.305-8.017 0-2.794-1.29-3.028-16.736-3.028-9.108 0-13.288-.114-14.963-.728h-75.14c-2.021.534-4.735.728-8.878.728h-9.994l.105-.728h-57.103zm-39.92 4.043c-.848.214-1.709.39-2.502.754-.257.118-.452.328-.636.552h1.589c.501-.445 1.065-.9 1.694-1.343l-.144.037zm-9.474 55.2c-.833-.05-1.884.027-2.754.085-.093.257-.186.514-.283.77 1.094-.57 2.487-.92 2.011-.319-.14.176-.25.302-.38.463.47.025 1.033.08 1.78.121a14.48 14.48 0 0 0-.374-1.12zm-2.754.085c.283-.784.542-1.576.797-2.37-.42-.002-.837.25-1.244.675-.078.154-.15.315-.23.466-.216.404-.463.787-.723 1.162 0 .014-.01.026-.012.04a.606.606 0 0 0-.025.066c.135.006.26-.002.4.01.261.004.639-.022 1.037-.049zm2.603-12.307c0-.296 0-.593-.016-.89 0 .271 0 .542-.01.814 0 .02-.01.042-.012.063a.463.463 0 0 1 .035.013zm-.016-.89c.01-.463.01-.926 0-1.39-.08-.127-.114-.205-.207-.345.117.582.176 1.159.205 1.735zm-271.09-45.51v11.152h34.917l-.497-5.129-.494-5.129-16.963-.447-16.962-.447zm508.094.105v11.047h29.98v-11.047h-29.98zm-221.293 2.139c.652.141 1.171.307.565.11a1.684 1.684 0 0 0-.565-.11zm15.96.658c-.016.003-.038.01-.054.014v.006l.057-.02zm241.497.537c-.058.58-.115 1.159-.177 1.739a275.772 275.772 0 0 0 .177-1.739zm-261.547 1.207c-.084-.002-.13.023-.154.065.055-.02.106-.044.16-.063 0 0 0-.002-.01-.002zm-43.261.149c-.076.012-.303.042-.227.037.267-.019.203-.02.363-.033v-.004c-.047.003-.094-.007-.14 0zm5.209.267c-.114.088-.195.149-.32.248.15.095.304.183.456.274-.045-.175-.092-.363-.136-.522zm-2.957.174-.041.031c0 .002.01.004.012.006l.029-.037zm-3.016.26c-.095.036-.18.066-.281.105-.047.037-.092.076-.139.114.02.01.041.024.061.035.132-.092.253-.176.36-.254zm-.527.305c-.151.123-.306.24-.455.367.187-.123.354-.236.506-.34l-.052-.027zm-7.739.037 1.29.49c.102-.073.204-.148.31-.209-.277-.108-.56-.2-.852-.254-.18-.034-.462-.035-.748-.027zm-2.699.394-.137.006.159.008c.047 0 .076 0 .125-.002-.081-.007-.097-.01-.147-.011zm-1.295.106c.143.048.187.06.317.103.024-.04.063-.063.094-.092-.137-.006-.273-.015-.41-.011zm18.63.252-.036.03c-.035.034-.06.072-.088.108h.152l-.029-.138zm-17.175.013c-.094.034-.192.074-.293.114 1.13.365 1.623.501 1.748.511h.03c.073-.028-.767-.369-1.485-.625zm-2.132.452.166.072c-.051-.021-.119-.054-.166-.072zm-18.28 1.449c-.125.033-.25.067-.377.095-.016.014-.014.022-.045.041-.474.302-1.063.326-1.629.415l.104.044c.043-.005.07-.011.121-.015.27-.022.756-.101 1.152-.135.225-.152.447-.3.674-.445zm-13.74 5.435c-.115.105-.227.21-.352.307l.041.154c.105-.153.207-.308.311-.46zm154.68 1.04c0 1.39-.674 2.776-2.004 3.841.124.222.242.453.363.68.197-.126.368-.19.535-.188-.01-.058.55-.006.75.05.056.015.108.043.162.066-.447-.041-.694-.112-.912-.116.001.008.013.018.04.032.475.238 1.047.248 1.515.501.293.16.338.86.377 1.086-.03.532-.058.81-.467 1.309a.57.57 0 0 1 .291.176c.106.058.211.119.318.176l.192.015c.265.163 1.072.625.793.488-.33-.162-.66-.33-.985-.503l-.199-.016c.107.166.27.428.488.748.098.006.197.006.295.018.613.072 1.305.46 1.957.99l-.047-.069c-.532-.811-.23-.425.217.2.52.447 1.001.982 1.383 1.545.346.32.684.648.967 1.021 1.56.82 2.69 2.178 2.564 5.186a6.419 6.419 0 0 1-.05 1.816l.032.174c.2.404.351.837.393 1.283.202.37.407.74.601 1.115.05.483.144 1.106.137 1.674.074.193.13.514.18.842.21.31.431.677.576.922-.082-.301-.196-.686-.246-.9-.122-.23-.23-.428-.455-.876-.143-.286.298.565.447.848 0 .006.01.02.01.027.293.55.397.841.438 1.264.225.444.407.911.613 1.365.01.052 0 .106.016.155.14.384.3.758.451 1.138.186.623.502 1.21.633 1.846.013.06-.01.037-.047-.03.091.176.175.354.252.536.098.165-.037-.073.187.31-.725-.803.06.048.67.963.192.288.272.421.362.57l.088.102c.135.158.24.341.36.512.168.268.378.514.505.805.06.137-.386-.46-.3-.336.342.5.757.95 1.075 1.464.21.34.858 1.02.69 1.184.322.446.653.736 1.105 1.393.315.457.54.968.805 1.457.047.087-.103-.17-.154-.254l.718 1.525c-.415-.661.27.409.35.799.039.187-.452-.613-.361-.445.177.328.326.567.472.802.664-.023 1.326-.048 1.99-.045.613.015 1.226.01 1.838.008 3.249.04 5.346 2.292 6.172 4.137v.012c3.149-.324 9.647-.216 22.338.012 19.659.353 26.301-.015 26.863-1.485.411-1.074 1.22-5.511 1.797-9.861l1.05-7.91h-33.284c-38.391 0-37.093.552-36.361-15.487.407-8.938.392-8.97-3.92-8.453-2.89.346-5.96-.67-7.631-2.215zm9.886 24.14c-.07-.106-.115-.162-.173-.24.048.1.136.258.193.37-.01-.04-.014-.092-.02-.13zm-.173-.24c-.025-.051-.032-.073-.055-.121 0 .013 0 .026-.01.039l.06.082zm-.055-.121a3.05 3.05 0 0 0 .049-.48c-.11-.286-.292-.523-.57-.872.04.216.171.614.52 1.352zm-.69-3.27-.226-.418c.067.357.138.712.207 1.069.02-.168.045-.357.035-.547 0-.035-.012-.07-.016-.104zm-.226-.418c-.055-.288-.112-.577-.166-.865l-.045-.096a7.324 7.324 0 0 1-.086.383c.101.192.193.388.296.578zm-5.063-10.607c-.055-.048-.114-.086-.17-.131.226.342.418.605.61.87.01-.034.055-.003.103.026-.215-.32-.363-.514-.543-.765zm-350.812-7.79.998 7.516c.548 4.133 1.403 8.57 1.898 9.862.718 1.87 4.237 2.347 17.299 2.347 18.414 0 17.627.685 15.125-13.134l-1.092-6.036-17.113-.277-17.115-.277zm39.546 0 .946 5.524c.52 3.038 1.331 7.475 1.804 9.861l.862 4.34h62.894l-1.023-9.072c-.562-4.99-1.179-9.271-1.371-9.512-.193-.24-14.696-.595-32.23-.789l-31.882-.351zm69.631 0 .02 3.946c.01 2.17.458 6.609.996 9.863l.978 5.916h32.047c17.627 0 32.327-.532 32.668-1.183.341-.651.206-5.088-.3-9.862l-.922-8.68h-65.487zm255.627 0-.018 3.946c-.01 2.17-.456 6.609-.994 9.863l-.978 5.916h66.273l.977-5.916c.538-3.254.986-7.693.996-9.863l.017-3.945h-66.274zm170.621 0-14.699.262-14.697.26-1.752 9.602-1.752 9.601h29.289l.861-4.34a468.009 468.009 0 0 0 1.805-9.86l.945-5.524zm-66.605.366c-15.888.055-31.865.33-32.22.775-.193.24-.81 4.522-1.372 9.512l-1.021 9.072h62.709l1.795-8.941c.987-4.918 1.796-9.355 1.796-9.861 0-.444-15.799-.612-31.687-.557zm-123.953 1.98a6.96 6.96 0 0 1-.414.284c.184.17.345.33.51.49.05 0 .098-.005.148-.004.049-.05.1-.097.152-.139 0-.004.01-.004.012-.008a4.658 4.658 0 0 0-.408-.623zm-.233.772v.008h.01c0-.002-.01-.006-.01-.008zm2.381 2.84c-.251.13-.532.205-.8.265.132.19.263.383.396.573.24-.044.482-.086.723-.112-.09-.22-.21-.479-.319-.726zm2.506 3.912c0 .002-.01.004-.01.006l.053.103c-.014-.036-.027-.073-.043-.109zm2.158.117c.135.112.247.211.393.328.036.03.054.035.084.057-.048-.081-.091-.15-.139-.233l-.338-.152zm-168.334 1.043a7.29 7.29 0 0 0-.375.836c.105-.1.233-.19.356-.283a1.141 1.141 0 0 1 .02-.553zm.403.36c0 .003-.013.006-.018.011.04.033.069.066.115.098.016-.013.03-.029.047-.041l-.145-.069zm.564.331-.039.045.031.018c0-.02.01-.042.01-.063zm.178.11-.06.031.05.03c0-.02.01-.041.01-.061zm-1.063.037-.12.117a5.408 5.408 0 0 0-.196.658c.115-.05.18-.082.312-.136l.082-.477c-.03-.056-.054-.109-.078-.162zm-.316.775a9.626 9.626 0 0 0-.461.215c-.069.347-.045.54.096.483l.32-.28c.052-.052.093-.097.143-.148-.118.074-.146-.03-.098-.27zm.098.27a.614.614 0 0 0 .119-.1c.019-.02.034-.042.053-.062v-.022l-.176.184zm.172-.162c0 .013 0 .027-.01.04l.084-.074c.116-.1.25-.162.392-.203a3.615 3.615 0 0 1-.107-.13l-.041.015c-.052.056-.114.117-.168.174-.053.058-.1.12-.154.178zm.322-.352.031-.033c0-.005-.01-.01-.01-.014l-.049.057a.17.17 0 0 0 .027-.01zm355.469.135c-.301 1.545-.613 3.088-.94 4.633a275.772 275.772 0 0 0 .94-4.633zm-356.871.516c-.057.038-.108.087-.16.132-.02.022-.046.047-.065.069-.03.075-.05.162-.078.24.105-.15.198-.295.303-.441zm-.303.44c-.118.169-.234.333-.342.497.067-.009.116-.012.186-.021.047-.166.102-.32.156-.475zm-.156.476c-.02.071-.043.14-.062.214.01-.004.013-.008.02-.011l.26-.229c-.084.012-.136.015-.217.026zm-.043.203c-.01.006-.015.014-.021.02-.114.431-.224.91-.342 1.417.18-.045.353-.107.53-.164.07-.04.146-.08.218-.121l.049-.068a6.894 6.894 0 0 1 0-1.301c-.144.07-.29.138-.43.217zm.166 1.273-.565.315c-.118.5-.262 1.035-.441 1.607.052-.093.097-.187.166-.28.29-.584.622-1.158 1.006-1.693-.055.017-.111.033-.166.051zm.111-2.191c0-.007 0-.015.01-.022a2.375 2.375 0 0 0-.361.428c.139-.16.16-.191.355-.406zm-.355.406c-.132.151-.25.283-.313.357l.104-.011c.063-.124.134-.236.209-.346zm-.313.357c-.395.049-.799.102-1.129.13a27.469 27.469 0 0 1-1.596 3.859l-3.294 6.457h-63.053l.092 3.55c.05 1.953.582 6.285 1.183 9.627l1.092 6.077 24.193-.23c22.494-.216 24.154-.034 23.649 2.6-.49 2.548-2.87 2.879-23.611 3.27l-23.069.436 2.361 9.37 2.36 9.372 15.187.45c12.998.384 15.263.847 15.715 3.21.474 2.473-1.037 2.762-14.474 2.762h-15.004l3.197 9.467 3.197 9.468h29.217c25.321 0 29.094-.315 28.307-2.367-.618-1.61.086-2.367 2.199-2.367 1.71 0 3.105 1.065 3.105 2.367 0 2.037 5.186 2.367 37.201 2.367h37.2l-.412-6.716c-.47-7.644 2.05-13.988 4.185-10.534.711 1.15 1.112 5.504.89 9.672l-.402 7.578h39.567c34.117 0 39.564-.326 39.564-2.367a2.374 2.374 0 0 1 2.367-2.367 2.374 2.374 0 0 1 2.368 2.367c0 2.019 4.289 2.367 29.13 2.367h29.131l2.428-8.175c1.336-4.497 2.428-8.759 2.428-9.47 0-.71-7.1-1.29-15.78-1.29-14.727 0-15.779-.211-15.779-3.156 0-2.964 1.052-3.157 17.227-3.157h17.226l1.71-7.966c.94-4.383 1.706-8.642 1.706-9.467 0-.882-9.738-1.5-23.613-1.5-12.294 0-18.233-.063-21.373-.633.036.286.073.594.107.984.02.062.047.14.057.182.177.791.327 1.587.49 2.38-.025.363-.045.871-.103 1.346.01.403.001.805 0 1.21v1.609c9.08 5.123 4.17 14.753-5.35 10.146-3.578-.015-8.964-.52-15.474-1.44-.71.253-1.629.049-2.402.161-2.487-.091-3.017-.104-4.813-1.277a350.631 350.631 0 0 1-8.785-1.582c-23.01-4.459-55.009-5.645-62.856-2.33-2.459 1.038-5.122 1.487-5.917.996-.291-.18-.56-2.328-.786-5.807-1.3 2.085-2.843 2.86-4.154-.4-.361.113-.482.144-.967.304h-.21c.15.411.216.826.238 1.252.161.38.31.845.468 1.46.163.634.07 1.302 0 1.962.607 9.746-8.084 11.505-10.756 4.17l-.023-.01c-1.13-.593-1.95-1.105-2.554-1.578-.151.235-2.417.642-4.11.85-.462.205-.725.27-2.177.486-.959-.068-1.238-.086-1.56-.143-.01 0-.034.002-.042 0-.245-.045-.97-.226-.728-.166.443.111.584.134.77.166.4.062 1.526-.01 1.48-.09-1.203-2.04-2.694-3.89-4.178-5.746-10.752-.889-25.713.462-45.531 4.088-10.32 1.888-22.142 3.469-30.618 4.264v.049c.061 1.409-.137 1.93-1.027 1.908-.04.048-.074.103-.12.146-.546.53-2.08 2.115-1.792 1.41.013-.032.103-.18.125-.226-.83.474-2.53.815-2.025.336.785-.747 1.775-1.218 2.77-1.684.03-.05.033-.064.063-.117-1.373-.262-3.583-.863-7.158-1.271-.788-.016-1.382-.069-1.707-.166-.12-.01-.231-.022-.354-.032.135.41.293.876.483 1.547-.334-.795-.498-1.092-.592-1.556-.043-.003-.08-.01-.123-.012 0 .146-.01.284.014.455-.016-.213-.023-.316-.035-.457v-.027a7.364 7.364 0 0 1-.016-.625v-.264c-.109-.47-.119-.89.014-1.498v-3.035c-.017-.957.131-1.322.443-1.778 0-.188.026-.375.06-.562-.01-.268-.033-.728-.01-.777.047-.098.071-.158.116-.25-.402-.35.374-1.81 1.422-3.133.074-.162.15-.297.217-.416.21-.843.549-1.275 1.783-2.17.01-.018.013-.035.02-.053-.157-.009.063-.246.456-.568.474-1.177.795-1.591 1.514-2.002.145-.178.309-.34.5-.477a3.64 3.64 0 0 1 .385-.38c.09-.08.184-.16.287-.233l.051-.088c.093-.28.2-.532.244-.422.113-.189.204-.363.303-.52.014-.06.019-.124.035-.185.025-.093.112-.181.217-.267-.448-.3-.88-.629-1.309-.954-.065.158-.12.29-.197.504.029-.194.04-.393.088-.584 0-.012.012-.023.016-.035.01-.011 0-.02.014-.033.033-.088.074-.173.111-.26 0 .01-.01.036 0 .027.07-.144.134-.353.252-.482.194-.545.11-.371.47-.916.034-.118.058-.24.116-.344.083-.17.15-.35.248-.513.135-.223.315-.407.492-.592.031-.057.07-.123.088-.16.098-.204.271-.375.41-.551.085-.107.166-.22.249-.328.397-.528.223-.306.482-.69-4.083-.38-.495-2.992 3.582-5.136l.13-.266c.286-.58.571-1.161.854-1.742-2.662-.061-1.089-1.457 1.5-2.928.155-.281.305-.565.467-.842.595-1.106.469-.895 1.153-2.047.672-1.133 1.412-2.228 1.996-3.412.591-1.019.221-.418.902-1.447.765-1.156 1.526-2.326 2.467-3.352.116-.127.248-.24.375-.357v-.719c-.018-1.65.097-2.334 1.033-3.355.13-.281.3-.537.53-.74.052-.047.111-.083.165-.127.093-.178.19-.36.239-.487 0-.005.167-.19.209-.24zm-1.143 1.594c-.308.663-.386 1.483-.41 2.207-.01.249-.01.6.01.975.262-.483.596-.878.977-1.223.014-.03.036-.06.05-.09a7.787 7.787 0 0 1 .052-1.468c-.19.104-.334.188-.533.296-.445.243-.02-.505.369-1.214-.189.18-.368.358-.514.517zm-16.238 31.967a7.912 7.912 0 0 0-.142.746c.093-.05.197-.096.295-.145.014-.037.039-.083.049-.119.086-.31.167-.563.248-.806l-.037-.024c-.03.02-.038.011-.027-.017l-.102-.069c-.063.092-.134.198-.283.434zm-.142.746-.035.018c.01.009.02.016.027.025 0-.014.01-.028.01-.043zm-.01.043c-.011.086-.018.172-.027.258.05-.025.116-.055.177-.084.01-.02.014-.038.023-.057a.527.527 0 0 1-.173-.117zm-.027.258c-.067.033-.185.087-.24.113-.084.04-.163.096-.247.139l-.101.312c.174-.081.354-.17.564-.27.01-.098.013-.196.023-.294zm-.487.252.096-.293-.029.023c-.068.121-.135.225-.199.346.045-.025.087-.053.133-.076zm-.22-.037c.068-.09-.22.258-.264.31.019-.012.04-.02.059-.031.05-.065.173-.238.205-.28zm-6.764 18.029.11.01c-.065-.195-.122-.394-.17-.555 0 .012-.01.025-.01.037.015.19.041.37.07.508zm9.328 1.478c.038.007.09.02.127.026.196-.092.386-.19.58-.285.341-.493.657-1.005.957-1.53l-.246.024c-.194.2-.45.406-.719.617a49.3 49.3 0 0 0-.699 1.148zm.707-.26c-.08.116-.155.235-.238.348.19.028.36.043.51.047.177-.205.329-.438.414-.693.01-.027.01-.035.018-.06-.23.126-.466.243-.703.359zm.703-.359c.036-.02.075-.036.112-.056.224-.513.32-.785.464-1.145l-.224.022c-.084.324-.184.674-.352 1.18zm-.941.707c-.098-.014-.233-.042-.342-.062l-.191.092a21.123 21.123 0 0 0-.744 1.347c.128-.073.24-.149.314-.226.35-.36.666-.748.963-1.15zm17.805-55.203c-.244.088-.489.175-.729.268-.039.272-.059.498-.086.74l.135-.11a.719.719 0 0 1 .137-.09c.01-.003-.012.037 0 .03.107-.097.205-.206.31-.307v-.004c.077-.175.154-.35.229-.527zm-2.737 1.424c-.253.459-.392.83-.24.955.057-.324.138-.646.24-.955zm174.012.527c.126.625.242 1.252.361 1.877 0-.17.01-.325-.01-.537-.032-.462-.196-.9-.353-1.34zm-12.445.45c.024.019.05.034.072.054 0-.013-.013-.031-.018-.045l-.055-.01zm.486.242v.01s0 .002.01.002l-.01-.012zm11.521.398c0 .006 0 .023.014.055.22.499.476.98.73 1.463.025-.136.053-.27.062-.432a7.834 7.834 0 0 0-.24-.416c-.128-.204-.539-.714-.565-.67zm.332 2.248c-.035.038-.01.182.051.395.042-.099.09-.209.125-.299a.526.526 0 0 0-.12-.096c-.027-.012-.044-.012-.056 0zm.182.102c-.04.1-.085.2-.129.3.01.035.03.083.041.122.815.52 1.974 3.363.502.076a4.97 4.97 0 0 0-.414-.498zm-.793.467c-.079-.014-.135.092-.16.341.096.1.19.2.274.305a1.92 1.92 0 0 1 .086-.43c-.073-.107-.145-.207-.2-.216zm-175.43 2.347c-.03.061-.044.071-.054.112v.025c.01-.006.03-.069.053-.117v-.02zm-.013.082-.047.084a1.758 1.758 0 0 0-.031.35c0-.004.01-.01.012-.014a4.92 4.92 0 0 0 .066-.42zm177.642.862c-.022.067-.062.214-.086.295.179.449.282.695.465 1.175.032.085.044-.007.045-.142-.12-.335-.262-.783-.424-1.328zm1.184 1.806c-.01-.171 0 .16-.045.41.039.429.084.902.197 1.749a72.952 72.952 0 0 1-.152-2.159zm172.656.157-14.543.453-14.541.455-2.041 7.888c-1.123 4.34-2.055 8.601-2.072 9.47-.02.951 5.447 1.482 13.777 1.337l13.807-.24 1.752-5.283c.963-2.906 2.226-7.263 2.806-9.682l1.055-4.398zm-455.416.119c-23.494 0-30.675.462-30.668 1.972.008 1.703 2.288 11.357 3.82 16.174.312.98 12.007 1.578 30.856 1.578h30.351l-.998-8.498c-.549-4.673-1.378-9.113-1.842-9.863-.463-.75-14.647-1.363-31.52-1.363zm358.094 0-1.573 9.51c-.865 5.23-1.414 9.667-1.22 9.86.193.194 13.923.354 30.51.354h30.158l1.443-5.523a656.282 656.282 0 0 0 2.494-9.861l1.047-4.34h-62.86zm-417.914.256c-6.041.012-10.305.302-10.305.77 0 .622 1.11 5.085 2.465 9.915l2.463 8.783h16.47c9.06 0 16.441-.355 16.405-.789-.037-.434-.976-4.695-2.088-9.469l-2.022-8.677-16.847-.448c-2.317-.061-4.528-.09-6.541-.085zm342.845 2.398c0 .005.01.035.031.096.055.143.125.282.2.422l.037.066c.288.528-.253-.617-.268-.584zm1.51 3.197c.03.091.065.18.092.272.03.04.023.03.06.076-.018-.069-.049-.18-.06-.232-.028-.04-.063-.076-.092-.116zm-.137.13c.05.172.102.342.155.513.079.068.152.13.22.185-.022-.091-.043-.184-.066-.275l-.043-.074a1.848 1.848 0 0 0-.234-.322.234.234 0 0 1-.031-.028zm.309.423.055.098v-.016c-.019-.034-.035-.07-.055-.104v.022zm.055.098c.019.075.032.134.053.212.035.029.085.075.117.1-.034-.066-.07-.13-.105-.197l-.064-.115zm.053.212-.041-.035c.08.334.163.667.24 1.002.076.097-.058-.422-.199-.967zm5.156 7.42.014.024c.058.083.078.12.143.209-.127-.19-.168-.253-.156-.233zm167.176 1.766c-.244.81-.498 1.614-.75 2.42a275.772 275.772 0 0 0 .75-2.42zm-368.588 4.043c-.019.031-.035.053-.047.082-.01.016-.01.066 0 .05.023-.04.032-.087.045-.132zm205.815 1.447c0 .016.01.031.014.047.01.005.028.022.035.027-.013-.017-.038-.059-.05-.074zm.066.203.043.075.053.029-.096-.104zm-357.989 3.55 3.155 8.306c1.735 4.568 3.493 8.852 3.906 9.52.412.667 7.857 1.212 16.543 1.212 17.758 0 16.476 1.39 11.648-12.623l-1.902-5.523-16.676-.446-16.674-.447zm483.159.103-2.655 8.424c-1.46 4.632-2.656 8.892-2.656 9.466 0 .575 5.942 1.045 13.203 1.045h13.201l3.367-8.1c1.852-4.454 3.366-8.716 3.366-9.468 0-.752-6.26-1.367-13.912-1.367h-13.914zm-435.104.242c-5.474.035-8.871.143-8.871.314 0 .53 3.061 9.661 5.5 16.407.535 1.48 7.992 1.972 29.953 1.972 16.083 0 29.21-.532 29.172-1.183-.038-.651-1.003-4.733-2.145-9.073l-2.076-7.89-30.203-.428c-8.305-.118-15.856-.155-21.33-.12zm411.275.012c-3.618.012-7.593.048-11.755.107l-30.274.428-2.043 7.89c-1.124 4.34-2.057 8.422-2.074 9.073-.017.65 13.054 1.183 29.047 1.183h29.078l3.27-8.738c1.797-4.806 3.269-9.082 3.269-9.502 0-.315-7.662-.479-18.518-.441zm-198.787 1.736c-.582.517-1.29 1.223-2.193 2.246-.238.27 0 .303.422.201.342-.13.794-.43 1.326-.822.135-.177.285-.368.496-.615a88.336 88.336 0 0 1-.05-1.01zm-.445 1.625c-.146.19-.262.342-.354.469.322-.147.628-.32.881-.502-.01-.115-.012-.229-.018-.346-.193.15-.35.261-.51.379zm-113.932 4.615c-.108.035-.212.078-.322.108-.077.26-.16.517-.23.779.17-.247.334-.5.552-.887zm98.54 3.428c-.19 0-.18.006 0 .018v-.018zm103.076.014c.227.348.555.78.826 1.103l.059.01c-.261-.319-.532-.693-.826-1.11l-.06-.003zm.067.004c.087.102.106.132.3.359-.13-.22-.098-.17-.207-.354-.024 0-.07-.005-.094-.006zm.236.015c.079.126.13.205.199.317-.041-.098-.075-.206-.113-.31l-.086-.007zm.158.01c.213.42.41.756.615 1.121l.06.012a6.095 6.095 0 0 1-.34-1.078l-.075-.037-.26-.018zm.334.055.227.115-.06-.137c-.05-.003-.126-.009-.175-.011 0 .011.01.022.01.033zm.227.115c.067.161.104.236.173.404.127.305.16.445.21.612.113.021.221.043.337.064.156-.175.282-.339.397-.498-.303-.1-.571-.222-.727-.357-.018-.016-.033-.035-.05-.051-.116-.057-.226-.117-.34-.174zm1.117.582.033.012-.031-.016v.004zm1.187-.568c.231.167.456.343.666.539.476.442-.844.356-1.81.045.49.253.977.51 1.431.804.369.058.742.11 1.118.163a56.193 56.193 0 0 0-.932-1.522c-.181-.012-.3-.017-.473-.03zm-108.951.638c-.134.138-.272.275-.408.413.508.007.795.035.94.078a5.837 5.837 0 0 1-.532-.49zm112.625.247c-.567.276-1.141.523-1.72.746 1.231.165 2.446.306 3.603.408-.024-.03-.042-.065-.064-.096a6.364 6.364 0 0 1-1.818-1.058zm-105.838.502c-.36.282-.249.275.112.123l-.112-.123zm-8.924.101c-.127.054-.079.035-.187.082.01 0 .012 0 .018-.002.062-.011.228-.105.17-.08zm9.752.838c-.47.16-.95.31-1.437.455 1.857.637 2.47.802 1.437-.455zm261.51 2.602c-.272.65-.553 1.297-.83 1.945a275.772 275.772 0 0 0 .83-1.945zm-355.207.242c-.029.179-.062.357-.08.537-.012.116.053-.226.066-.342.01-.09.01-.128.014-.195zm-107.658 8.12 1.11 3.587c.61 1.972 2.45 6.25 4.093 9.504l2.986 5.918h54.823l-2.807-9.075-2.807-9.072-28.699-.43-28.7-.431zm-21.856.073c-8.678 0-15.773.533-15.765 1.184.008.65 2.152 4.91 4.765 9.467l4.752 8.285h29.878l-3.927-8.875c-2.158-4.882-3.923-9.143-3.923-9.47 0-.325-7.101-.59-15.78-.59zm448.364 0-4.06 8.87c-2.234 4.877-4.061 9.139-4.061 9.468 0 .329 5.669.598 12.6.598h12.6l4.78-9.47 4.78-9.466h-26.639zm-24.104.254c-3.431.012-7.197.046-11.144.106l-28.705.43-2.692 9.071-2.691 9.075h55.076l3.857-8.725c2.122-4.798 3.86-9.073 3.86-9.502 0-.321-7.268-.49-17.56-.455zm48.46 16.387c-.308.565-.631 1.12-.942 1.683a275.772 275.772 0 0 0 .941-1.683zm-381.183 6.957 3.315 8.32c1.822 4.576 3.668 9.206 4.103 10.291.59 1.47 7.61 1.973 27.52 1.973h26.727l-1.106-5.918c-.606-3.255-1.579-7.692-2.156-9.862l-1.051-3.945-28.676-.43-28.676-.43zm217.811.015-38.3.422-38.303.424-.489 7.688c-.269 4.229-.115 8.668.344 9.863.674 1.756 7.642 2.172 36.326 2.172h35.492l1.48-5.916a556.512 556.512 0 0 0 2.466-10.285l.984-4.368zm-249.605.055c-14.634 0-26.606.39-26.606.867 0 1.44 4.955 10.68 8.21 15.307l3.05 4.34h24.35c13.595 0 24.351-.635 24.351-1.438 0-.79-1.519-5.405-3.375-10.256l-3.375-8.82h-26.605zm254.677.002-.892 5.127a346.987 346.987 0 0 1-1.983 10.258l-1.088 5.127h53.606l3.375-8.819c1.856-4.85 3.375-9.465 3.375-10.255 0-.811-12.286-1.438-28.195-1.438h-28.198zm89.53 0c-14.754 0-26.825.219-26.825.488 0 .27-1.73 4.902-3.843 10.295l-3.842 9.807 25.443-.434 25.442-.433 5.218-8.678c2.87-4.773 5.225-9.21 5.225-9.861 0-.651-12.065-1.184-26.818-1.184zm33.865 0-5.098 9.272c-2.804 5.1-5.097 9.717-5.097 10.257 0 .541 4.876.983 10.835.983 11.998 0 9.912 1.574 21.426-16.174l2.815-4.338h-24.881zm-426.375.018c-8.028-.01-14.596.375-14.596.857s2.867 5.096 6.371 10.256l6.37 9.38h13.353c7.344 0 13.355-.404 13.355-.9 0-.495-2.308-5.102-5.129-10.238l-5.128-9.336-14.596-.02zm165.156.254c-12.87-.014-21.959.203-21.959.578 0 1.028 3.112 14.657 4.047 17.722.474 1.556 8.12 1.907 34.18 1.577l33.568-.426v-18.934l-35.896-.426c-4.936-.058-9.649-.087-13.94-.091zm282.244 15.484c-.586.866-1.168 1.733-1.763 2.592a275.772 275.772 0 0 0 1.763-2.592zm-276.644 9.488c-23.935.045-22.362.78-19.53 9.63a795.79 795.79 0 0 1 2.317 7.335c.453 1.49 8.137 1.973 31.42 1.973h30.818v-18.936h-33.135c-4.53 0-8.471-.008-11.89-.002zm-154.637.002c-7.346 0-13.357.457-13.357 1.014 0 .557 3.25 4.817 7.222 9.467l7.223 8.455h25.267l-4.636-5.918c-2.551-3.255-5.476-7.514-6.5-9.467-1.708-3.256-2.971-3.55-15.22-3.55zm19.416 0 2.758 4.338c1.516 2.387 4.473 6.648 6.572 9.469l3.816 5.129H995.445l-4.78-9.469-4.779-9.467h-49.232zm81.514 0c-14.259 0-25.924.34-25.924.754 0 .415 1.923 4.674 4.273 9.467l4.274 8.715h24.13c13.272 0 24.13-.424 24.13-.942 0-.517-1.116-4.776-2.48-9.466l-2.48-8.528h-25.923zm239.215 0-4.78 9.467-4.78 9.469h45.538l5.406-7.496c2.974-4.123 5.916-8.382 6.54-9.467.885-1.542-4.222-1.973-23.397-1.973h-24.527zm55.628 0-6.14 9.073c-3.377 4.99-6.32 9.429-6.537 9.863-.218.434 4.009.688 9.392.564 9.474-.217 9.982-.446 15.815-7.101 10.791-12.314 10.78-12.399-1.653-12.399h-10.877zm-78.091.25c-3.147.012-6.603.046-10.223.106l-26.33.433-2.043 7.889c-1.124 4.34-2.057 8.423-2.074 9.074-.017.651 10.828 1.184 24.1 1.184h24.128l4.274-8.715c2.35-4.793 4.273-9.07 4.273-9.506 0-.327-6.664-.5-16.105-.465zm-63.758.045c-4.195-.01-8.802.01-13.63.069l-35.108.425-.475 9.104-.475 9.105 33.51-.425 33.508-.426 2.045-7.89c1.124-4.34 2.057-8.437 2.074-9.104.013-.501-8.864-.825-21.45-.858zm161.23 11.703c-.923 1.114-1.842 2.231-2.783 3.33a275.772 275.772 0 0 0 2.783-3.33zm-58.203 13.235c-2.27 0-4.905.013-7.931.013h-21.448l-5.572 8.71c-3.064 4.79-5.57 9.051-5.57 9.468 0 .417 8.373.758 18.607.758h18.606l6.334-6.707c10.87-11.51 12.865-12.24-3.026-12.242zm-326.44.013-12.072.026-12.072.027 10.256 9.373v-.002c10.235 9.354 10.278 9.374 20.275 9.443l10.018.069-8.201-9.469-8.203-9.467zm56.757 0 2.816 4.34c1.55 2.387 4.295 6.638 6.1 9.447l3.28 5.108 20.675.021 20.675.02-3.318-9.467-3.316-9.469h-46.912zm52.64 0 3.197 9.47 3.198 9.466H1116.9V614.38h-59.754zm64.488 0v18.936h58.094l3.197-9.467 3.198-9.469h-64.489zm70.217 0-3.316 9.47-3.317 9.466 20.674-.02 20.674-.02 3.281-5.108c1.805-2.81 4.55-7.061 6.1-9.448l2.818-4.34h-46.914zm112.69 0c-9.284 0-8.856-.286-21.87 14.596l-3.794 4.34h7.82c7.464 0 8.246-.43 17.19-9.467l9.367-9.469h-8.713zm-317.112.15c-2.888.007-6.434.103-10.861.196l-21.111.443 8.295 9.075 8.296 9.072h37.757l-3.337-5.918c-6.318-11.21-6.52-12.895-19.039-12.867zm326.428 6.843a277.511 277.511 0 0 1-3.666 3.544 275.772 275.772 0 0 0 3.666-3.544zm-272.728 17.464c-10.395 0-18.9.577-18.9 1.28 0 .702 3.65 5.14 8.114 9.861l8.12 8.584h14.761c8.12 0 14.762-.309 14.762-.686 0-.376-1.79-4.813-3.978-9.86l-3.979-9.179h-18.9zm240.775.051a40.501 40.501 0 0 0-2.434.047c-6.165.3-7.078.907-27.578 18.352-.829.705.358 1.275 2.655 1.275 3.735 0 31.15-16.737 31.181-19.037 0-.368-1.578-.61-3.824-.637zm-320.596.043c-4.68-.05-8.508.261-8.508.695 0 .434 5.857 4.84 13.016 9.79 10.948 7.569 14.13 9.009 20.037 9.072 3.862.04 6.348-.5 5.524-1.201-22.345-19.015-21.107-18.259-30.069-18.356zm28.94.102c-6.229.072-10.625.354-10.625.74-.001.515 5.074 4.954 11.279 9.863l11.283 8.926h28.549l-4.78-5.129c-2.627-2.82-6.31-7.169-8.185-9.664-3.373-4.49-3.586-4.539-20.777-4.734a298.054 298.054 0 0 0-6.744-.002zm256.136.004-17.26.197-8.042 9.664-8.043 9.664h27.812l11.004-8.756c6.052-4.816 11.18-9.253 11.397-9.861.216-.608-7.375-1.017-16.868-.908zm-164.775.035c-8.912-.02-15.201.113-15.201.357 0 .326 1.872 4.765 4.16 9.864l4.16 9.27h42.324l-.47-9.557-.471-9.557-24.852-.305c-3.417-.042-6.68-.066-9.65-.072zm78.6.018c-3.251-.003-6.824.016-10.567.058l-27.218.309-.489 7.38c-.269 4.06-.106 8.377.362 9.596.686 1.79 5.191 2.131 23.369 1.778l22.517-.438 4.29-8.678c2.358-4.773 4.311-9.034 4.34-9.468.02-.326-6.851-.528-16.604-.537zm49.166.01c-2.28-.02-4.784-.011-7.407.029l-19.076.293-4.525 9.57-4.527 9.57h31.109l8.047-8.804c4.426-4.843 8.049-9.283 8.049-9.864 0-.435-4.83-.738-11.67-.794zm83.959.626a277.055 277.055 0 0 1-4.037 3.192 275.772 275.772 0 0 0 4.037-3.192zm-22.57 16.446c-1.055.69-2.107 1.385-3.172 2.062a275.772 275.772 0 0 0 3.171-2.062zm-237.118 6.978-11.627.467-11.629.469 10.86 6.111c5.973 3.361 14.849 7.769 19.724 9.795 4.876 2.026 10.616 3.713 12.754 3.75 4.453.077 5.047.786-10.408-12.361l-9.674-8.23zm213.363.118c-1.695-.108-5.828 1.824-11.763 5.552-4.773 2.999-8.127 5.467-7.451 5.487 1.728.05 20.074-9.312 20.074-10.245 0-.497-.294-.759-.86-.794zm-189.595.029c-15.91 0-15.842.507 1.732 12.85 9.385 6.59 11.975 7.663 18.502 7.663h7.588l-7.17-10.257-7.17-10.256h-13.482zm163.33.056c-10.019.05-12.156.584-16.268 4.073-2.603 2.208-8.283 6.906-12.623 10.437l-7.89 6.42 6.904-.902c6.406-.838 38.754-15.789 40.592-18.762.449-.727-4.372-1.297-10.715-1.266zm-35.404.047-14 .106-6.56 10.152-6.558 10.152h7.495c6.414 0 9.067-1.105 18.406-7.664 17.662-12.403 17.706-12.869 1.217-12.746zm-30.842.043c-2.862.008-6.49.107-10.98.201l-21.094.442-.489 7.69c-.269 4.228-.115 8.666.344 9.86.62 1.619 4.388 2.175 14.748 2.175h13.914l5.93-7.944c8.081-10.825 10.028-12.46-2.373-12.424zm-64.192.135c-6.67.055-11.275.45-11.275 1.049 0 .786 2.979 5.451 6.621 10.367l6.623 8.938 11.918-.455 11.918-.456V664.087l-18.54-.445c-2.587-.062-5.041-.081-7.265-.063zm-95.617.072a4.99 4.99 0 0 0-.59.045c-3.56.494-2.124 1.578 9.192 6.93 7.377 3.49 15.188 7.126 17.357 8.08 9.052 3.982 6.179 1.411-7.625-6.824-9.763-5.825-15.226-8.287-18.334-8.23zm250.742 7.295c-.204.105-.41.208-.615.313a275.772 275.772 0 0 0 .615-.313zm-25.033 11.24c-.296.116-.593.23-.89.344a275.772 275.772 0 0 0 .89-.343zm-87.719 6.358c-10.73 0-11.045.113-11.045 3.945 0 3.508.657 3.94 5.918 3.94 5.178-.005 16.174-4.814 16.174-7.073 0-.446-4.972-.812-11.047-.812zm-22.494.049c-.918-.007-1.961-.004-3.146.002l-9.862.049 6.31 3.886c8.454 5.207 13.413 5.191 13.413-.04 0-3.319-.29-3.848-6.715-3.897zm-24.642.072c-3.862.112-3.767.265 1.377 2.246 7.155 2.755 7.02 2.755 4.734 0-1.08-1.302-3.831-2.312-6.111-2.246zm72.384.049c-2.17-.039-5.323.974-7.007 2.248-3.712 2.807-1.948 2.79 5.43-.05 4.864-1.874 5.052-2.136 1.577-2.198zm36.473 2.158c-.382.11-.774.214-1.16.322a275.772 275.772 0 0 0 1.16-.322z" style="fill:#38a5ed;fill-opacity:1"/><path style="fill:#006700" d="m-177.583 499.496-28.859-.46-1.067-7.784c-3.098-22.602.82-44.996 11.883-67.925 6.481-13.435 9.97-18.204 22.237-30.396 16.533-16.432 30.41-24.633 51.717-30.563 17.135-4.769 43.648-5.11 59.776-.771 39.143 10.533 68.858 38.62 82.973 78.426 3.602 10.16 6.025 42.213 4.004 52.984l-1.146 6.106-29.85-.17c-29.608-.167-29.763-.187-19.194-2.501 29.445-6.447 41.772-19.17 28.992-29.925-5.513-4.638-19.319-10.303-29.67-12.174-3.632-.657-7.1-1.473-7.706-1.814-.606-.341 2.256-6.5 6.36-13.688 8.181-14.33 11.496-24.101 9.892-29.157-1.713-5.397-5.795-8.357-11.525-8.357-5.351 0-24.297 8.362-33.874 14.95l-4.958 3.411-3.078-12.13c-10.157-40.037-27.87-43.694-38.336-7.917-1.764 6.027-3.654 13.029-4.2 15.56l-.995 4.6-9.672-6.187c-11.029-7.056-23.768-12.287-29.92-12.287-5.897 0-10.941 5.636-10.94 12.223.001 5.622 7.515 23.226 13.5 31.632 1.847 2.593 3.358 5.395 3.358 6.225 0 .83-4.564 2.453-10.143 3.605-19.63 4.055-33.692 12.647-33.692 20.587 0 8.121 17.584 17.84 38.893 21.495 12.655 2.171 5.332 2.882-24.76 2.402z" transform="translate(147.563 -36.75) scale(.32421)"/><path style="fill:#006700" d="M-308.978 491.532c-3.738-24.93 3.438-45.69 22.351-64.66 6.3-6.319 13.52-12.945 16.044-14.724l4.588-3.234-1.862-12.362c-3.6-23.897 3.311-48.219 18.3-64.41 15.965-17.242 35.006-24.032 65.56-23.375l18.777.403 11.62-12.365c20.803-22.136 38.577-30.796 62.813-30.605 23.034.182 40.845 8.768 59.736 28.793l10.809 11.458 20.057-.798c29.95-1.191 46.848 3.97 63.26 19.32 15.636 14.627 22.71 35.474 21.33 62.866l-.806 16.017 10.286 7.712c13.006 9.751 25.267 24.845 29.971 36.895 4.324 11.074 5.201 34.327 1.673 44.328l-2.23 6.322h-37.06c-24.278 0-36.7-.582-36.018-1.686.573-.927 2.108-1.686 3.412-1.686 3.832 0 5.86-5.812 5.86-16.79 0-9.422-.35-10.402-4.245-11.883-5.21-1.981-7.556-7.742-7.556-18.56 0-5.903.788-8.678 2.784-9.794 3.377-1.89 2.389-10.672-2.274-20.21-2.236-4.575-4.353-6.442-8.013-7.063-3.325-.565-6.817-3.263-10.537-8.14-5.776-7.572-7.001-13.35-3.561-16.79 1.545-1.546.816-3.64-3.2-9.188-7.435-10.27-13.095-14.232-16.406-11.484-3.67 3.046-9.19 1.161-17.55-5.993-5.737-4.912-7.042-7.001-6.275-10.055 1.183-4.712-3.618-8.918-15.25-13.36-7.992-3.052-8.044-3.05-10.445.567-4.384 6.602-22.598 2.828-27.301-5.657-2.736-4.936-3.068-5.04-16.144-5.04-12.42 0-13.387.255-13.872 3.664-1.062 7.458-23.138 10.4-27.602 3.677-2.384-3.59-2.471-3.595-11.586-.652-13.373 4.32-17.004 6.967-15.851 11.56 1.12 4.465-1.788 7.514-12.408 13.006-6.177 3.194-7.862 3.447-11.17 1.676-4.816-2.577-7.812-1.117-16.845 8.204-6.088 6.283-6.452 7.169-4.465 10.882 2.414 4.51 1.335 7.545-6.23 17.53-3.264 4.306-5.388 5.479-9.925 5.479-5.425 0-6.072.634-10.757 10.537-5.925 12.523-5.982 13.152-1.548 16.949 2.797 2.394 3.23 4.121 2.316 9.226-1.966 10.97-5.16 16.923-9.407 17.524-3.714.526-3.963 1.343-4.425 14.467-.37 10.479.046 13.916 1.686 13.935 4.123.049 6.638 2.87 8.02 9l1.387 6.148h-78.679l-1.137-7.581z" transform="translate(147.563 -36.75) scale(.32421)"/><path style="fill:#006700" d="M-105.66 490.944c-6.337-6.028-6.815-7.128-6.815-15.674 0-8.418.538-9.717 6.393-15.435 5.65-5.517 7.375-6.243 14.832-6.243 7.546 0 9.098.676 14.68 6.393 5.67 5.807 6.244 7.246 6.244 15.675 0 8.521-.523 9.792-6.393 15.524-5.525 5.394-7.463 6.243-14.26 6.243-6.82 0-8.774-.863-14.681-6.483z" transform="translate(147.563 -36.75) scale(.32421)"/><path style="fill:#006700" d="M-85.875 483c7.063-4.946 2.82-17.606-5.9-17.606-2.859 0-8.898 6.14-8.898 9.045 0 3.125 6.5 11.186 9.02 11.186 1.117 0 3.717-1.18 5.778-2.624zM-131.275 494.277l-4.468-1.065 5.723-6.592c5.59-6.438 5.803-6.52 9.105-3.532 1.876 1.697 3.382 5.197 3.382 7.856 0 4.157-.618 4.77-4.637 4.598-2.55-.11-6.647-.68-9.105-1.265zM-63.957 490.785c.4-2.726 2.079-6.179 3.73-7.673 2.799-2.533 3.358-2.285 8.29 3.692l5.287 6.408-3.83 1.097c-2.106.603-6.164 1.172-9.017 1.264-4.809.156-5.134-.193-4.46-4.788zM-159.682 489.679c-21.739-5.788-30.589-13.992-21.51-19.94 5.664-3.712 22.11-9.143 31.423-10.378 7.873-1.045 7.952-1.006 14.175 6.983 3.443 4.418 6.26 8.543 6.26 9.165 0 .623-2.758 4.672-6.127 8.997-6.875 8.824-8.89 9.254-24.221 5.173zM-46.53 484.17l-7.115-8.499 6.412-8.547c6.308-8.409 6.534-8.534 13.998-7.751 16.473 1.728 36.249 10.531 36.249 16.136 0 5.403-17.504 13.42-35.04 16.05-7.28 1.092-7.494.982-14.504-7.39zM-130.53 463.874l-5.409-6.517 5.199-1.04c10.736-2.147 13.207-1.444 13.207 3.757 0 3.995-4.295 10.458-6.877 10.347-.39-.017-3.144-2.963-6.12-6.547zM-60.42 467.668c-1.497-1.714-3.095-5.204-3.551-7.754-.763-4.267-.412-4.623 4.416-4.468 2.885.092 7.006.663 9.157 1.269l3.911 1.1-5.606 6.486c-5.377 6.22-5.717 6.357-8.327 3.367zM-143.471 446.27c-6.404-8.621-12.393-19.968-14.707-27.866-1.933-6.593-1.849-7.598.796-9.531 3.913-2.862 12.219-.618 25.518 6.893 17.039 9.623 17.307 10.006 15.55 22.236-1.654 11.507-1.24 11.177-16.005 12.8-6.536.72-7.562.302-11.152-4.531zM-53.953 450.215c-5.368-.687-10.007-1.536-10.31-1.887-.301-.35-.96-5.394-1.463-11.208-.894-10.333-.794-10.661 4.408-14.564 6.314-4.736 21.898-12.711 28.586-14.63 13.858-3.974 12.904 8.925-2.458 33.25-3.727 5.901-7.278 10.63-7.89 10.509-.612-.122-5.505-.783-10.873-1.47zM-110.763 442.212c.041-10.172 1.785-11.19 8.99-5.252 6.04 4.978 6.198 5.363 3.453 8.396-1.582 1.748-5.034 3.178-7.673 3.178-4.423 0-4.794-.492-4.77-6.322zM-83.012 445.116c-3.028-3.346-2.972-3.522 2.689-8.361 3.18-2.72 6.252-4.975 6.826-5.012.97-.064 3.11 9.906 3.152 14.683.03 3.408-9.268 2.446-12.667-1.31zM-100.039 430.602l-8.638-7.428 2.373-11.317c2.837-13.538 9.484-28.72 13.196-30.144 6.016-2.309 12.994 10.233 17.847 32.076l2.207 9.934-4.959 4.062c-2.727 2.233-6.854 5.453-9.173 7.154l-4.215 3.092-8.638-7.429z" transform="translate(147.563 -36.75) scale(.32421)"/><path transform="matrix(.34661 0 0 .34661 -270.136 -28.647)" d="M1114.47 82.656c-16.24.094-31.914.935-43.081 2.553-64.332 9.323-125.075 37.196-175.336 80.457-34.393 29.603-60.997 64.599-82.365 108.348-43.157 88.357-45.734 190.342-7.092 280.673 17.105 39.988 38.616 72.286 68.595 102.999 28.027 28.71 52.859 47.504 85.827 64.953 41.49 21.959 86.822 35.09 132.808 38.468 60.218 4.425 122.17-7.71 175.94-34.462 95.11-47.322 161.766-134.63 183.017-239.717 12.074-59.704 6.005-130.608-15.93-186.143-45.666-115.617-144.429-195.598-265.289-214.842-14.391-2.291-36.212-3.407-57.093-3.287zm4.602 4.823c55.164 0 103.715 11.599 152.375 36.408 34.572 17.626 60.333 36.741 88.371 65.574 97.91 100.681 122.304 252.605 60.77 378.473-50.328 102.946-147.269 172.094-261.219 186.328-19.26 2.406-60.902 2.722-76.59.582-57.962-7.906-103.098-24.208-147.27-53.186-73.042-47.919-126.463-126.386-143.683-211.049-14.944-73.472-5.114-150.823 27.545-216.728 56.913-114.848 171.96-186.402 299.701-186.402Zm3.866 3.427c-4.678-.031-9.385.03-14.122.18-37.37 1.19-66.509 6.562-101.777 18.771-14.772 5.114-52.33 23.76-66.238 32.885-83.5 54.78-136.303 137.817-149.91 235.744-3.062 22.036-3.077 63.004-.032 86.094 20.045 151.974 140.24 269.625 293.498 287.29 19.584 2.256 70.595.567 90.73-3.005 142.237-25.234 249.287-134.689 272.464-278.586 3.504-21.755 3.515-74.731.022-96.406-9.736-60.398-33.68-114.688-71.016-161.008-13.631-16.911-44.73-46.62-60.96-58.234-59.018-42.234-122.502-63.25-192.659-63.725zm-16.979 10.942c1.234-.1 1.28 1.021 1.28 4.466 0 4.33.337 4.585 5.128 3.887 2.82-.41 6.081-.105 7.246.678 2.418 1.625 3.531 22.095 1.278 23.488-2.509 1.55-4.137-3.365-4.16-12.568-.022-7.959-.406-9.074-3.126-9.074-1.705 0-3.86 1.42-4.789 3.156-1.104 2.063-1.138 3.156-.096 3.156 1.06 0 1.078 1.357.055 4.047-.99 2.607-.996 5.063-.016 6.895.838 1.564 1.076 3.293.528 3.841-1.722 1.722-5.2 1.084-5.323-.976-.065-1.085-.372-7.467-.683-14.182-.309-6.714-.964-12.852-1.451-13.64-.488-.789.233-1.864 1.601-2.39 1.16-.444 1.967-.74 2.528-.784zm53.135 4.478c4.141-.007 7.985.596 9.295 1.906 3.257 3.257-.63 7.649-6.768 7.649-5.217 0-6.217-1.059-5.586-5.918.33-2.544-1.699-2.508-5.252.09-4.482 3.278-2.75 9.657 2.795 10.29 4.274.49 4.473.84 3.569 6.311-.527 3.187-.965 6.683-.975 7.768-.018 2.004-3.476 2.72-5.133 1.064-.5-.499-.263-3.156.526-5.906 2.01-7.011 1.892-7.387-2.319-7.387-7.295 0-8.673-6.257-2.865-13.02 1.566-1.823 7.387-2.839 12.713-2.847zm3.324 2.043c-1.87.054-3.624 2.246-2.404 4.219.583.943 1.685 1.715 2.45 1.715 2.438 0 3.578-3.367 1.757-5.188-.544-.544-1.18-.764-1.803-.746zm-92.777 1.2c2.046 0 2.882 1.18 2.882 4.07 0 3.661.455 3.97 4.534 3.074 3.419-.751 4.786-.337 5.56 1.68 1.43 3.728-.207 4.82-3.832 2.556-4.749-2.965-6.262-2.307-6.262 2.725 0 4.063.53 4.598 4.278 4.338 4.463-.31 6.99 4.059 4.049 7-1.969 1.968-11.033 4.46-12.153 3.342-.499-.5-.908-4.341-.908-8.536 0-8.238-2.444-10.076-5.945-4.47-2.603 4.165-4.636 4.011-4.317-.327.186-2.517 1.69-3.854 5.426-4.822 4.607-1.194 5.094-1.843 4.487-5.984-.543-3.696-.092-4.647 2.2-4.647zm129.816 6.38c.652.055.873.686.639 1.905-.208 1.084.163 3.568.826 5.521.955 2.814 2.41 3.557 7.016 3.576 7.218.03 10.235 1.838 9.494 5.688-.43 2.227-1.943 2.966-6.073 2.966-4.503 0-5.593-.644-6.006-3.55-1.14-8.037-5.017-.266-5.017 10.058 0 2.385-.92 3.748-2.527 3.748-2.183 0-2.376-1.505-1.418-11.045.655-6.53.511-11.046-.354-11.046-3.037 0-8.485 7.658-9.383 13.187-.966 5.957-3.103 7.498-4.683 3.379-1.725-4.493 1.2-10.723 8.256-17.58 4.42-4.296 7.448-6.587 8.923-6.795.111-.016.214-.02.307-.012zm-179.326 6.828c2.206.051 3.476 1.17 3.476 3.31 0 2.692-4.002 3.3-5.523.839-3.03-4.903-9.92 4.2-7.127 9.418 1.454 2.717 2.724 3.139 7.014 2.334 4.823-.905 5.297-.63 5.99 3.494.414 2.463 1.036 5.502 1.383 6.752.346 1.25-.526 2.528-1.94 2.84-1.87.412-2.86-.974-3.632-5.09-1.022-5.447-1.263-5.62-6.432-4.65-4.836.907-5.472.599-6.4-3.1-1.703-6.784.399-11.405 6.505-14.303 2.69-1.276 4.97-1.883 6.686-1.844zm222.93 4.178c.491.016 1.022.568 1.88 1.666 2.255 2.883 11.01 6.195 16.381 6.195 3.995 0 4.491 1.053 2.203 4.67-1.257 1.988-1.867 1.934-4.44-.394-2.823-2.556-6.677-3.644-6.677-1.887 0 .446.845 2.163 1.877 3.816 2.56 4.099-.757 7.997-6.804 7.997-5.583 0-5.981 2.734-.596 4.086 4.946 1.24 4.922 1.821-.295 7.267-4.24 4.425-3.716 5.197 3.057 4.508 1.518-.155 2.749.652 2.736 1.79-.057 4.867-2.508 6.167-5.465 2.9-1.59-1.757-3.802-3.194-4.918-3.194-3.758 0-4.15-3.365-.805-6.926 4.245-4.518 4.178-5.141-.69-6.363-2.625-.66-4.847-.168-6.437 1.422-1.335 1.335-3.05 2.044-3.81 1.574-2.31-1.428.112-5.271 3.648-5.789 2.273-.333 3.757-2.165 4.69-5.785.976-3.788 2.692-5.8 6.011-7.053 5.983-2.258 5.94-4.217-.09-4.217-5.031 0-5.643-.935-3.101-4.734.7-1.046 1.153-1.565 1.644-1.549zm-30.848 2.107c-.356.05-.87.398-1.604 1.006-1.292 1.073-1.96 2.579-1.484 3.348 1.592 2.576 3.834 1.436 3.834-1.95 0-1.741-.153-2.486-.746-2.404zm-137.322 1.02a2.374 2.374 0 0 0-2.368 2.367 2.374 2.374 0 0 0 2.368 2.367 2.374 2.374 0 0 0 2.367-2.367 2.374 2.374 0 0 0-2.367-2.367zm174.228 9.525c-1.885.073-5.127 2.31-5.822 4.395-.935 2.805 5.907 2.24 6.988-.576.514-1.34.458-2.912-.125-3.494-.242-.243-.606-.341-1.04-.325zm-276.101.493c.768-.032 1.638.237 2.671.802 1.622.887 4.853 2.012 7.182 2.5 2.329.489 4.668 2.254 5.197 3.922.53 1.668 2.757 5.677 4.95 8.908 3.111 4.586 3.53 6.156 1.916 7.155-2.607 1.61-4.017.18-9.084-9.201-4.307-7.974-8.467-9.814-9.28-4.106-.575 4.042 5.3 16.295 7.815 16.295 1.166 0 1.093.78-.225 2.367-3.107 3.744-4.226 2.929-8.783-6.385-3.556-7.268-3.987-9.398-2.54-12.576 1.435-3.147 1.264-4.095-.962-5.351-2.018-1.14-2.252-1.988-.92-3.334.627-.634 1.294-.965 2.063-.996zm146.054 6.57c21.267-.013 37.093.739 44.182 2.098 62.497 11.981 109.53 36.304 151.482 78.34 10.415 10.434 23.55 25.553 29.192 33.595 48.361 68.945 63.453 150.653 42.695 231.16-19.823 76.882-72.643 141.82-144.473 177.617-28.684 14.296-62.03 23.95-101.435 29.366-21.525 2.958-19.084 3.033-49.613-1.52-42.524-6.34-68.605-14.293-98.743-30.105-27.178-14.26-42.249-25.262-65.55-47.858-40.38-39.156-66.19-86.341-78.612-143.715-3.159-14.59-3.588-20.993-3.588-53.65s.43-39.057 3.588-53.648c8.135-37.572 21.817-69.983 43.028-101.92 16.21-24.408 49.205-57.253 74-73.664 31.842-21.077 65.375-34.926 102.828-42.471 15.207-3.064 22.841-3.608 51.02-3.625zM945.59 160.197c1.643.055 2.877 1.034 3.385 2.973.525 2.008 1.977 2.985 4.105 2.762 2.733-.287 3.501.824 4.51 6.529.668 3.78 1.967 7.78 2.887 8.889 1.223 1.474.992 2.274-.864 2.986-4.357 1.672-4.62 1.327-6.19-8.158-.904-5.466-1.646-6.598-3.862-5.895-1.883.598-3.307-.364-4.538-3.066-2.359-5.179-7.026-3.784-5.652 1.69 1.02 4.066-.752 4.946-3.808 1.89-1.468-1.468-.943-2.878 2.347-6.313 2.78-2.9 5.567-4.357 7.68-4.287zm351.82 2.992c3.043.062 6.208 1.31 7.693 3.43 3.71 5.295.73 9.223-6.992 9.223-7.365 0-8.098 2.01-1.7 4.66 3.36 1.392 4.347 2.684 3.76 4.926-1.107 4.238-3.375 3.787-5.208-1.035-1.774-4.665-4.762-4.4-7.031.625-1.63 3.607-3.223 4.35-4.588 2.14-1.041-1.684 6.784-21.206 9.111-22.732 1.348-.885 3.13-1.273 4.955-1.237zm1.463 2.606c-.808.031-1.697.266-2.594.746-2.768 1.481-3.746 4.719-1.964 6.5 1.543 1.543 6.755-.575 7.742-3.146.942-2.456-.76-4.194-3.184-4.1zm28.55 20.605c.638-.033 1.228.25 1.893.803 1.883 1.562 1.664 2.28-1.384 4.58l-3.618 2.729 3.891 3.152c2.139 1.734 3.534 3.507 3.1 3.94-.434.432-4.696 2.535-9.47 4.673l-8.677 3.889 4.51 1.799c3.965 1.582 4.259 2.13 2.42 4.535-1.15 1.504-2.273 3.01-2.494 3.348-.224.337-1.079-1.163-1.904-3.334-.826-2.172-2.62-4.38-3.989-4.905-4.632-1.777-2.522-5.513 4.664-8.257 8.603-3.286 9.886-4.94 6.024-7.764-2.804-2.05-2.77-2.296.886-6.188 1.892-2.014 3.087-2.944 4.149-3zm-415.275.909c1.206-.042 2.396.345 3.448 1.218 2.99 2.481 2.916 7.812-.168 12.215-2.332 3.33-2.24 3.595 1.785 5.125 2.335.888 5.508 1.214 7.049.725 3.99-1.267 5.343-5.842 2.37-8.016-2.083-1.523-2.129-2.089-.294-3.611 1.663-1.38 2.638-1.248 4.139.56 3.086 3.72.588 9.658-5.6 13.309-4.979 2.938-5.535 3.883-4.652 7.902 1.224 5.576-.98 7.405-3.692 3.063-1.547-2.477-1.566-3.68-.09-5.46 1.042-1.254 1.614-2.478 1.274-2.72-.34-.242-2.563-1.655-4.938-3.14-2.374-1.486-5.475-4.47-6.892-6.633-2.16-3.297-2.263-4.687-.64-8.604 1.518-3.667 4.249-5.841 6.901-5.933zM911 191.098a2.624 2.624 0 0 0-.406.002c-.723.06-1.446.432-2.074 1.19-1.434 1.727-1.46 3.103-.104 5.638 2.128 3.976 5.334 3.417 5.996-1.045.467-3.145-1.392-5.637-3.412-5.785zm443.98 19.597c1.17-.013 2.15 1.177 3.07 3.6 1.377 3.618 7.745 9.599 11.585 10.879 1.303.434 1.07 1.435-.756 3.262-3.001 3-4.44 3.343-4.44 1.056 0-3.422-.307-4.073-3.644-7.664-1.9-2.045-5.13-4.364-7.178-5.154-3.07-1.186-3.382-1.846-1.78-3.778 1.206-1.452 2.233-2.19 3.144-2.2zm-476.628 8.073c.634-.026 1.288.289 2.074.941 1.167.968 3.556 1.386 5.308.928 2.146-.561 5.335.962 9.766 4.664 3.619 3.023 7.422 5.778 8.451 6.12 1.988.663.471 4.382-1.787 4.382-.734 0-4.349-2.518-8.031-5.594-10.321-8.623-17.128-5.065-7.922 4.14 2.68 2.681 4.472 5.526 3.98 6.32-1.526 2.471-3.433 1.623-7.668-3.41-2.866-3.406-3.81-5.948-3.164-8.525.647-2.578.06-4.156-1.972-5.302-2.265-1.278-2.48-2.053-.989-3.559.706-.713 1.32-1.08 1.954-1.105zm470.77 1.49c2.665-.147 4.933 1.054 7.302 3.576 4.6 4.897 3.464 8.485-4.582 14.437-3.444 2.548-6.278 5.166-6.299 5.817-.057 1.825-2.873 1.4-4.123-.623-.66-1.068 1.996-4.506 6.492-8.406 5.657-4.908 7.331-7.32 6.531-9.405-1.226-3.197-3.815-2.59-11.69 2.74-2.814 1.906-5.116 4.438-5.126 5.63-.01 1.745-.47 1.784-2.379.2-3.558-2.952-2.973-4.273 4.182-9.456 3.96-2.87 7.025-4.364 9.691-4.51zm24.774 30.402c4.533-.112 8.257 2.059 11.544 6.543 2.522 3.443 2.58 4.162.505 6.236-3.565 3.566-4.64 2.834-3.586-2.437.795-3.974.332-5.065-2.74-6.465-2.87-1.308-4.89-1.078-9.043 1.027-8.713 4.418-11.006 7.017-9.185 10.418.87 1.627 2.58 2.957 3.8 2.957 1.22 0 2.553.541 2.961 1.202 1.014 1.64-2.977 6.897-4.261 5.613-.565-.565-1.028-2.172-1.028-3.57 0-1.399-1.42-3.758-3.156-5.245-4.63-3.964-3.905-8.334 1.973-11.892 4.677-2.832 8.691-4.3 12.216-4.387zm-521.328 9.086c1.666.158 6.254 3.38 10.616 7.506 4.652 4.4 9.254 8 10.228 8 .974 0 1.363 1.065.863 2.367-1.405 3.663-3.878 2.857-10.207-3.322-5.53-5.4-5.878-5.519-6.879-2.365-1.11 3.498-6.225 4.52-8.027 1.605-.762-1.233-1.547-1.23-2.79.014-1.635 1.634-.87 2.512 7.007 8.033.635.445.324 3.462-.691 6.705-1.173 3.746-2.817 5.899-4.504 5.899-3.981 0-7.623-4.417-7.573-9.186.062-5.925 8.707-24.635 11.664-25.246.085-.018.182-.02.293-.01zm-1.093 4.748c-.434.01-.807.133-1.07.397-.418.417-.339 1.852.175 3.191 1.164 3.034 5.768 3.224 5.768.238 0-1.801-2.996-3.868-4.873-3.826zm-7.522 16.35a1.177 1.177 0 0 0-.412.006.644.644 0 0 0-.328.174c-1.659 1.658-1.28 3.257 1.412 5.949 2.769 2.768 4.811 3.15 6.059 1.13.943-1.525-4.451-6.932-6.73-7.26zm545.787 6.06c.39-.018.76-.019 1.11 0 .372.02.717.063 1.033.13 2.697.565 6.976 1.161 9.508 1.327 5.5.36 7.15 3.561 2.584 5.01-1.808.574-3.243 2.387-3.243 4.098 0 2.203-2.447 4.153-8.677 6.908-4.773 2.11-8.68 4.5-8.68 5.31 0 .81 1.573 2.517 3.496 3.793l3.498 2.323-3.498 1.87c-1.923 1.03-3.586 1.668-3.697 1.42-.111-.247-.444-1.869-.74-3.605-.297-1.735-.977-5-1.514-7.256-.9-3.778-.285-4.38 7.84-7.677 6.317-2.564 8.816-4.421 8.816-6.551 0-4.601-7.277-4.448-15.506.328-5.05 2.93-8.162 2.852-8.162-.207 0-2.682 9.985-6.946 15.832-7.22zM828.453 310.65c.834-.046 1.756.428 3.225 1.397 1.852 1.222 3.592 4.095 3.867 6.383.617 5.14 3.445 5.534 3.445.478 0-2.025.428-4.11.951-4.635 1.141-1.14 14.829 5.283 14.829 6.96 0 2.645-3.346 2.918-7.766.632-6.14-3.175-6.436-3.112-6.436 1.381 0 2.097-.887 4.183-1.972 4.635-1.436.598-1.22 1.434.789 3.068 1.519 1.235 2.761 3.054 2.761 4.043 0 1.949-3.553 2.453-5.26.746-.578-.578-1.052-2.707-1.052-4.732 0-2.847-.87-3.682-3.832-3.682-7.749 0-11.707-9.483-6.24-14.949 1.112-1.112 1.857-1.678 2.691-1.725zm.654 5.903c-.686-.027-1.433.096-2.205.392-1.995.766-2.093 1.4-.52 3.297 2.487 2.994 6.296 3.04 6.296.074 0-2.24-1.512-3.682-3.57-3.763zm575.418 14.32c2.94 0 4.339 1.185 5.57 4.719 1.423 4.08 2.281 4.625 6.339 4.03 2.812-.414 4.987.084 5.431 1.241 1.015 2.645-.466 3.817-4.826 3.817-4.181 0-4.195.029-2.254 5.134 1.125 2.958.804 4.15-1.504 5.592-3.611 2.256-5.803-.345-3.068-3.64 3.395-4.092.974-6.247-6.443-5.737-8.955.617-10.184 1.94-6.14 6.604 3.1 3.573 3.122 3.84.429 4.902-4.648 1.834-5.1 1.554-4.83-2.992.142-2.387-.262-5.85-.897-7.695-1.294-3.758 1.875-5.262 11.162-5.301 5.927-.025 6.888-3.212 1.68-5.565-4.917-2.22-5.284-5.109-.649-5.109zm-564.99 25.035c3.264.041 4.19.63 4.19 2.102 0 1.842-1.72 2.449-6.934 2.449-11.452 0-10.778 7.842.898 10.451 2.751.615 3.931 1.708 3.383 3.137-1.413 3.683-5.923 2.47-12.843-3.453-3.628-3.105-6.596-4.881-6.596-3.946 0 .936-2.538 1.702-5.639 1.702-4.523 0-5.532-.547-5.1-2.762.389-1.987 1.749-2.62 4.85-2.254 3.227.38 4.31-.177 4.31-2.217 0-2.575.167-2.573 3.03.018 2.901 2.626 3.051 2.585 3.55-.94.46-3.247 1.496-3.737 8.805-4.158 1.66-.095 3.008-.142 4.096-.129zm341.737 8.084c.254.152.506.309.76.463l.048.004c.31.033-1.076-.626-.808-.467zm-2.387.139.055.078.014.002c-.02-.027-.02-.03-.043-.063l-.025-.017zm3.896.781c.075.046.152.09.227.137v-.037c-.092-.041-.15-.064-.23-.1zm32.297 18.324c.11.204.242.455.356.67.172.084.341.175.517.25.447.192-.148-.338-.873-.92zm-51.107 5.52-.07.062c.335.158.606.268.412.145-.113-.072-.229-.137-.342-.207zm-86.059 39.29-.055.007c-.197.133-.309.204-.523.35.312-.19.425-.26.578-.356zm136.28 13.735c-.012.435-.046 1.628-.06 2.235l.138.002c-.01-.734-.015-1.467-.022-2.211l-.057-.026zm-147.803 1.487c-.03.014-.062.027-.135.1-.275.27-.518.54-.748.81.206-.026.355-.056.52-.084.24-.418.407-.733.4-.813l-.037-.013zm341.492 8.712c.46 0 2.952 2.406 5.535 5.348 2.934 3.341 6.764 5.74 10.207 6.385 7.265 1.363 7.375 4.762.115 3.584-4.518-.733-6.296-.06-10.9 4.133-3.26 2.968-5.859 7.062-6.379 10.049-.867 4.977-.786 5.051 6.56 6.048 10.2 1.385 12.962 2.266 12.962 4.133 0 .899-1.898 1.22-4.34.736-15.783-3.129-15.971-3.116-17.041 1.147-1.436 5.719-.147 6.916 8.756 8.14 4.337.597 8.285 1.73 8.771 2.516 1.15 1.861-4.427 1.586-14.293-.705-4.34-1.007-7.889-2.537-7.879-3.398.01-.862 1-7.107 2.21-13.877 1.959-10.972 2.808-12.813 7.808-16.934l5.609-4.623-4.27-4.455c-3.849-4.018-5.605-8.227-3.431-8.227zm-599.004 9.688c1.64.125 5.527 1.273 12.055 3.475 6.346 2.14 11.154 4.699 11.423 6.08.286 1.46-3.429 4.921-9.578 8.927-5.523 3.6-10.526 6.543-11.117 6.543-2.078 0-1.042-3.016 1.53-4.455 3.879-2.17 1.94-14.192-2.887-17.906-2.458-1.891-3.066-2.789-1.426-2.664zm9.521 6.21c-.476-.065-.583 2.301-.238 5.259l.63 5.377 5.614-3.313 5.616-3.314-5.377-1.944c-2.958-1.069-5.768-1.998-6.245-2.064zm13.022 17.284c3.769.133 4.356 2.64 5.633 9.502 2.135 11.482 1.554 13.395-4.737 15.588-2.663.928-7.145 1.69-9.96 1.69-5.684 0-6.254-.846-9.393-13.926-2.233-9.306-2.692-8.71 8.67-11.24 4.1-.914 6.949-1.525 8.99-1.61.28-.012.546-.013.797-.004zm-.356 3.332c-1.47.043-4.502.553-7.808 1.346l-8.016 1.922 1.037 5.75c.57 3.162 1.68 6.993 2.463 8.511 1.71 3.313 8.948 3.663 13.094.631 2.427-1.775 2.741-3.405 1.873-9.738-.573-4.183-1.357-7.92-1.74-8.303-.096-.096-.412-.133-.903-.119zm573.063 16.047c1.667.056 1.825 1.564-.662 3.383-1.533 1.12-3.933 5.403-5.334 9.514-2.099 6.16-2.176 7.701-.442 8.773 2.968 1.834 4.127.722 6.26-6.008 3.908-12.327 9.196-16.136 14.725-10.607 2.132 2.132 2.129 3.273-.047 10.65-1.34 4.545-3.162 9.152-4.047 10.236-1.835 2.249-7.535 2.686-7.535.579 0-.767 1.31-1.737 2.914-2.157 3.469-.907 7.655-14.913 5.193-17.375-2.442-2.442-4.532-.09-7.285 8.2-3.29 9.903-5.906 12.215-11.127 9.835-2.144-.976-3.896-3.085-3.896-4.685 0-5.67 5.094-17.754 8.181-19.406 1.275-.682 2.344-.957 3.102-.932zm-585.54 10.93c.331.014.693.07 1.073.175 1.519.42 6.311 1.22 10.65 1.776 16.538 2.12 17.078 3.767 4.696 14.346-4.795 4.096-8.462 7.7-8.152 8.01.31.309 4.76-1.145 9.892-3.233 13.94-5.671 15.766-2.27 5.416 10.092l-6.297 7.52 4.916.984c2.704.54 7.17.982 9.926.982 4.713 0 8.797 2.309 8.797 4.975 0 .653-3.334 2.664-7.408 4.466-9.402 4.16-14.684 5.49-14.684 3.702 0-.771 3.616-2.802 8.035-4.512 4.42-1.71 8.306-3.54 8.635-4.068.33-.529-4.488-1.434-10.705-2.012-6.217-.578-11.632-1.38-12.035-1.783-.403-.404 2.62-5.003 6.719-10.22 4.098-5.216 7.107-9.484 6.687-9.484-.42 0-4.076 1.421-8.125 3.157-4.05 1.735-8.293 3.156-9.43 3.156-3.22 0-4.313-4.908-1.73-7.762 3.57-3.945.24-15.617-4.817-16.886-2.06-.518-3.748-1.623-3.748-2.456 0-.624.7-.968 1.69-.925zm11.384 5.386c-2.507.1-2.194 1.486-.4 6.202l1.626 4.277 3.897-3.66c5.165-4.853 4.93-5.801-1.627-6.567-1.512-.176-2.66-.285-3.496-.252zm563.925 10.28c1.098-.004 2.336.225 3.286.656 1.518.69 3.827 1.34 5.128 1.443 4.787.381 11.045 2.757 11.045 4.194 0 .819-2.33 1.041-5.228.498-5.802-1.089-7.18.026-10.565 8.545-1.904 4.794-1.828 5.553.749 7.437 1.578 1.154 3.564 2.33 4.414 2.613 1.156.386-6.53 18.459-9.084 21.364-.224.253-4.507-1.353-9.522-3.57-5.015-2.218-9.319-3.832-9.564-3.587-.246.246 2.377 4.89 5.83 10.32 3.453 5.432 5.805 10.641 5.226 11.577-.7 1.132-4.946 1.335-12.69.61-6.4-.6-11.636-.75-11.636-.333 0 .418 3.55 3.038 7.889 5.823 4.34 2.784 7.89 5.344 7.89 5.687 0 1.868-4.9-.224-12.234-5.225-6.93-4.726-7.97-6.035-6.348-7.99 1.513-1.822 4.299-2.14 12.63-1.441 5.877.493 10.685.57 10.685.174 0-.397-2.56-4.577-5.69-9.291l-5.691-8.573 9.746-19.898c5.36-10.945 10.761-20.29 12.002-20.766.465-.178 1.074-.265 1.732-.267zm.342 2.894c-2.097 0-8.134 13.812-6.906 15.8 1.932 3.126 4.178 1.405 7.26-5.561 3.043-6.88 2.926-10.239-.354-10.239zm-8.195 18.95c-2.293.015-9.267 12.444-8.07 14.38 1.799 2.911 4.747 1.13 8.234-4.976 3.57-6.25 3.513-9.43-.164-9.405zm8.375 3.165c-1.691-.051-8.15 14.053-7.166 15.647 2.123 3.436 5.058 1.49 8.53-5.654 2.839-5.844 3.144-7.61 1.497-8.655-1.138-.721-2.426-1.325-2.861-1.338zm-539.195 15.905c5.608.008 10.805.497 11.402 1.463.548.886-2.287 6.213-6.299 11.836-4.012 5.622-7.495 10.22-7.74 10.22-1.756 0-2.084-2.366-.647-4.668 2.676-4.284-4.322-15.808-9.689-15.955-3.677-.1-3.759-.235-.893-1.467 2.24-.962 8.258-1.437 13.866-1.43zm1.914 3.008c-6.226 0-6.195-.047-3.692 5.447 2.232 4.897 2.44 4.913 6.147.469 4.185-5.018 3.813-5.916-2.455-5.916zm17.287 19.04c.18-.007.361-.005.545.009 2.448.184 5.233 2.345 8.642 6.591 7.087 8.829 7.635 9.913 6.498 12.875-1.494 3.893-5.014 3.043-4.308-1.04.87-5.035-9.435-16.993-12.262-14.23-1.593 1.559-.99 3.334 3.033 8.936 5.317 7.404 6.232 11.738 3.13 14.84-3.399 3.398-7.23 2.011-12.975-4.7-6.002-7.012-7.78-15.497-3.248-15.497 1.692 0 2.138 1.043 1.521 3.55-.616 2.503.574 5.298 4.03 9.468 2.696 3.254 5.585 5.918 6.417 5.918 3.652 0 2.924-5.196-1.586-11.329-5.245-7.132-6.008-10.593-2.998-13.603 1.128-1.128 2.301-1.729 3.56-1.787zM1354.648 596c3.155-.036 19.237 11.028 18.68 12.984-.247.868-7.064 2.287-15.15 3.155l-14.703 1.578 8.113 5.523c4.462 3.038 8.115 6.056 8.115 6.707.01 2.341-2.786 1.078-11.65-5.27-7.319-5.24-8.664-6.871-7.164-8.679 1.016-1.224 4.422-2.277 7.57-2.342 3.148-.064 8.807-.597 12.574-1.183l6.85-1.067-7.639-5.385c-4.201-2.96-6.837-5.654-5.86-5.984a.862.862 0 0 1 .264-.037zm-461.462 20.084c4.558 0 15.575 11.774 14.957 15.984-.283 1.922-1.475 3.81-2.65 4.198-1.486.49-1.85-.208-1.19-2.286 1.072-3.377-7.305-14.74-10.867-14.74-2.5 0-11.842 7.536-11.842 9.553 0 2.829 9.902 12.539 12.787 12.539 1.646 0 2.992.633 2.992 1.408 0 .775-1.149 1.85-2.553 2.389-3.305 1.268-16.382-11.583-16.382-16.1 0-3.818 10.398-12.945 14.748-12.945zm445.183.7c.83-.175 3.259 1.126 7.06 4.26 9.71 8.006 9.92 11.508 1.192 19.755-3.984 3.764-7.89 6.844-8.678 6.844-1.866 0-13.117-8.184-15.906-11.57-1.851-2.249-1.822-2.632.201-2.632 1.302 0 3.279 1.1 4.393 2.442 1.114 1.342 4.098 3.915 6.63 5.719l4.606 3.279 6.186-6.04c3.402-3.321 6.185-6.634 6.185-7.36 0-.727-2.999-4.091-6.666-7.477-4.696-4.336-6.27-6.997-5.203-7.22zM912.154 633.44c.694 0 1.026.548.737 1.215-1.014 2.34-17.096 16.559-17.096 15.115 0-1.77 14.585-16.33 16.36-16.33zm2.889 4.225c2.562.006 5.455 2.79 12.086 8.79 6.261 5.663 6.537 6.305 6.537 15.255 0 14.558 1.026 15.56 7.47 7.287 5.79-7.43 10.7-8.488 5.22-1.125-1.731 2.326-5.123 6.565-7.538 9.422-6.254 7.4-8.3 4.596-8.341-11.428l-.032-12.701-6.918 7.889c-3.804 4.339-7.462 7.355-8.127 6.7-.664-.653.395-2.896 2.354-4.982l3.562-3.79-6.054-5.628c-6.958-6.466-7.315-6.58-10.114-3.209-1.788 2.156-1.211 3.233 4.147 7.743 3.423 2.881 5.71 5.76 5.082 6.398-1.167 1.183-15.426-9.615-15.426-11.682 0-.625 3.485-4.568 7.744-8.763 4.084-4.023 6.087-6.181 8.348-6.176zm399.287 2.088c1.022 0 1.256 2.69.629 7.262-.796 5.806-.364 8.149 2.152 11.683 1.732 2.432 3.147 4.845 3.147 5.362 0 2.065-2.8.73-6.31-3.006-2.96-3.151-5.239-3.944-11.321-3.944-4.188 0-7.615-.71-7.615-1.578 0-.868 3.55-1.578 7.888-1.578 7.666 0 7.891-.132 7.891-4.605 0-5.748 1.42-9.596 3.54-9.596zm-399.56 1.578c-3.789 0-3.038 3.955 1.671 8.814 5.847 6.033 6.611 6.3 9.174 3.211 1.424-1.716.624-3.21-3.804-7.1-3.086-2.709-6.255-4.925-7.041-4.925zm379.197 16.453c.63-.01 1.197.09 1.719.29 3.687 1.414 3.003 3.769-1.096 3.769-4.385 0-15.358 7.217-15.358 10.101 0 3.11 6.191 10.412 8.827 10.412 2.622 0 14.841-7.75 14.841-9.414 0-2.717-2.413-3.023-5.886-.748-6.462 4.234-7.435 1.602-1.174-3.174 5.684-4.335 6.035-4.404 8.08-1.607 3.601 4.925 2.429 8.281-4.568 13.074-10.777 7.382-12.7 7.494-18.34 1.069-6.426-7.319-6.371-12.168.193-17.067 6.157-4.595 10.033-6.663 12.762-6.705zM950.77 665.79l9.036 4.652c4.968 2.56 9.355 5.884 9.748 7.387.393 1.503 1.637 2.378 2.765 1.945 2.491-.955 18.15 6.742 18.15 8.922 0 2.325-1.7 1.894-8.991-2.275-5.681-3.248-6.896-3.466-8.51-1.522-2.189 2.638-2.543 2.232 6.062 6.971 3.689 2.031 6.707 4.273 6.707 4.98 0 1.886-1.02 1.637-8.105-1.978-3.521-1.796-7.4-2.883-8.617-2.416-4.187 1.606-2.202 5.058 4.886 8.502 3.906 1.897 7.102 4.17 7.102 5.049 0 .879-.533 1.566-1.184 1.525-1.187-.073-16.371-7.663-17.638-8.816-.372-.338.812-3.27 2.629-6.514 5.378-9.606 2.16-15.84-10.94-21.205-2.916-1.194-10.738 6.546-10.738 10.627 0 2.959 13.627 10.76 16.72 9.572 1.566-.6 2.24-.223 1.829 1.024-1.198 3.636-6.652 2.914-14.21-1.881-9.22-5.85-9.66-9.71-2.097-18.37l5.396-6.179zm319.823 8.125c2.698.123 4.56 2.031 7.029 6.025 5.524 8.938 3.894 13.084-7.385 18.795-9.334 4.727-12.587 3.126-17.949-8.836-2.433-5.428-.589-7.908 9.795-13.17 3.799-1.925 6.41-2.91 8.51-2.814zm-.158 3.71c-2.477 0-11.022 3.945-14.432 6.663-1.486 1.185-1.207 2.941 1.217 7.692 1.727 3.386 3.865 6.158 4.75 6.158 2.976 0 14.251-6.434 15.086-8.608 1.173-3.057-3.748-11.906-6.621-11.906zm-37.176 13.605c.877.1 3.049 3.153 5.22 7.449 2.483 4.909 4.799 8.926 5.147 8.926.348 0 3.866-1.387 7.818-3.08 10.483-4.495 10.485-1.055 0 3.746-4.886 2.237-9.158 4.068-9.494 4.068-1.51 0-9.876-19.524-8.984-20.967a.283.283 0 0 1 .293-.142zm-6.793 3.751c4.497 0 8.354 5.252 9.629 13.11.8 4.936.397 5.813-3.623 7.883-8.106 4.172-15.918 5.714-18.69 3.687-3.07-2.245-7.111-13.44-5.947-16.474 1.043-2.719 13.502-8.206 18.63-8.206zm-217.488.317c2.478-.003 3.3 3.562 4.08 13.49.9 11.472-.757 15.116-3.541 7.791-1.787-4.698-13.327-8.6-16.832-5.691-1.26 1.045-2.777 1.415-3.372.82-1.156-1.156 10.624-12.047 16.575-15.322 1.254-.69 2.263-1.087 3.09-1.088zm216.925 3.055c-1.833-.023-4.339.787-8.18 2.324-6.707 2.684-7.603 4.985-4.804 12.347 1.807 4.754 5.2 5.115 14.209 1.51 6.928-2.772 7.575-4.702 3.936-11.74-1.555-3.006-2.803-4.412-5.16-4.441zm-218.047 1.732c-.854.011-2.126.643-3.923 1.82-5.105 3.345-5.033 4.723.343 6.631 4.038 1.433 4.375 1.223 4.846-3.004.419-3.762.159-5.465-1.266-5.447zm16.61.121c2.188.073 5.73 4.75 9.389 12.775l5.1 11.192 2.859-9.033c2.43-7.684 3.347-8.93 6.132-8.346 1.801.378 7.303 1.464 12.227 2.414 4.923.95 9.807 2.757 10.851 4.016 2.145 2.583.874 14.211-1.92 17.578-1.56 1.881-7.759 2.559-11.572 1.265-.868-.294-4.295-.99-7.617-1.546l-6.041-1.014.897-6.611.896-6.612-2.096 5.522c-3.401 8.959-6.051 7.687-12.215-5.87l-5.582-12.275-2.87 8.678c-3.516 10.622-3.897 11.314-5.622 10.248-1.127-.697.828-8.13 5.492-20.873.383-1.046.962-1.532 1.692-1.508zm178.834 2.666c1.098 0 6.502 17.646 6.502 21.23 0 2.326-4.964.2-14.563-6.24-5.821-3.905-10.898-7.101-11.281-7.101-.383 0 .297 3.729 1.51 8.285 1.21 4.556 2.213 8.816 2.224 9.467.038 2.388-2.927 1.098-3.627-1.578-.543-2.078-.766-1.883-.904.789-.267 5.187-2.916 4.336-4.162-1.338-1.055-4.803-1.2-4.87-8.217-3.819-10.768 1.615-11.455 2.094-10.42 7.272.923 4.612-1.535 6.567-3.107 2.47-2.036-5.304-2.978-19.97-1.283-19.97.968 0 1.76 1.442 1.76 3.205 0 4.202 3.195 5.273 11.853 3.975 6.811-1.022 7.08-1.268 7.08-6.487 0-5.007.375-5.427 4.856-5.427 3.143 0 7.964 2.226 13.673 6.314 4.85 3.473 9.107 6.026 9.461 5.672.354-.354-.114-3.373-1.04-6.71-2.054-7.394-2.135-10.009-.315-10.009zm-152.348 7.936-1.709 7.468c-.94 4.109-1.448 7.732-1.129 8.051.319.319 2.923 1.134 5.787 1.813 7.04 1.667 11.969 1.805 12.862.361.406-.657 1.227-3.792 1.822-6.965 1.245-6.637-.447-8.11-11.188-9.746l-6.445-.982zm95.602 1.869c2.491.048 3.713.64 4.779 1.924 2.738 3.299 1.222 4.782-2.522 2.466-1.976-1.222-5.455-1.376-10.804-.474-8.454 1.425-10.113 4.016-7.99 12.474.854 3.405 1.796 3.786 9.404 3.786 5.59 0 9.121-.803 10.42-2.368 2.2-2.65 4.734-3.134 4.734-.902 0 4.18-5.324 6.426-15.24 6.426-9.767 0-10.363-.218-11.916-4.34-1.545-4.1-2.101-4.31-10.12-3.799-7.106.453-8.484 1.03-8.484 3.55 0 2.597 1.192 3.01 8.678 3.01 4.773 0 8.68.71 8.68 1.579 0 .89-4.472 1.576-10.258 1.576h-10.256V718.65h-10.638l-1.07 9.467c-.59 5.207-1.829 9.467-2.755 9.467-1.132 0-1.325-3.355-.586-10.256l1.098-10.256h-5.646c-3.107 0-5.649-.65-5.649-1.443 0-.805 10.16-1.454 22.973-1.467 16.95-.018 22.815.465 22.363 1.838-.337 1.024-4.285 2.076-8.773 2.338-5.851.342-8.16 1.124-8.16 2.762 0 1.717 2.154 2.283 8.677 2.283 7.575 0 8.68-.394 8.68-3.1 0-4.033 3.534-5.8 14.283-7.138 2.65-.33 4.603-.498 6.098-.47z" style="fill:#f50202"/><path transform="matrix(.34661 0 0 .34661 -270.136 -28.647)" d="M1136.387 448.033c-.713.119-1.44.212-2.18.287-.625.064-1.246-.038-1.865-.181-3.138.335-5.253 1.325-7.389 3.006-3.995 3.142-4.402 3.178-7.191.654-4.698-4.252-13.937-4.559-31.676-1.057-.29.057-.616.115-.914.172-2.832 1.906-6.875 3.156-12.164 3.156h-.824a8845.987 8845.987 0 0 1-4.207-.002c-.898-.003-1.796.003-2.694.008-3.22.42-6.24.778-8.521.963l-12.826 1.04-9.922 17.564c-32.673 57.84-30.091 52.21-30.715 66.976l-.565 13.354 9.758-.975c5.367-.536 18.99-2.014 30.272-3.283 11.282-1.269 32.106-3.192 46.275-4.275 23.892-1.827 25.971-2.236 28.648-5.64l2.887-3.669 2.91 3.748c2.774 3.571 4.546 3.878 37.625 6.514 19.092 1.52 43.942 4.002 55.225 5.515 11.281 1.513 20.69 2.854 20.906 2.979.217.124.394-5.986.393-13.58V527.5l-20.063-35.765-20.064-35.764-12.676-1.033c-6.972-.569-19.992-2.404-28.931-4.078-9.074-1.7-15.131-2.646-19.514-2.827zm-30.5 4.627c4.304-.016 7.151.576 8.357 1.781 3.088 3.088 2.161 4.66-1.656 2.807l-3.55-1.723 3.55 3.104c1.953 1.707 3.55 3.604 3.55 4.217 0 .613-1.597.714-3.55.224l-3.55-.892 3.55 2.933c4.712 3.892 4.478 5.052-.79 3.926l-4.339-.928 4.34 2.842c5.258 3.443 5.604 5.262.789 4.149l-3.55-.82 3.55 2.634c4.879 3.623 4.525 5.907-.613 3.953-5.98-2.273-6.482-.606-.717 2.375 6.297 3.257 6.204 4.51-.248 3.346l-5.13-.926 5.13 2.664c2.82 1.465 5.129 3.303 5.129 4.082 0 .78-2.309 1-5.13.49l-5.128-.923 5.129 2.664c6.262 3.252 6.688 5.63.789 4.406l-4.34-.9 4.34 2.498c5.615 3.234 5.74 6.008.176 3.892-5.98-2.273-6.482-.606-.717 2.375 5.985 3.095 6.631 6.187.832 3.983-6.297-2.394-6.685-1.818-1.08 1.6 8.338 5.083 5.966 5.861-6.51 2.138-1.805-.539-2.566-.248-1.953.744.552.894 3.076 2.08 5.61 2.637 2.535.556 5.453 2.031 6.488 3.277 2.378 2.866 1.583 2.838-9.268-.316-10.701-3.111-28.451-2.297-54.723 2.51-18.336 3.354-41.816 5.835-41.816 4.417 0-.893 17.48-32.722 29.644-53.98 3.996-6.982 8.013-13.216 8.928-13.854.916-.637 5.68-1.17 10.586-1.183 4.906-.013 15.914-1.437 24.46-3.164 9.954-2.013 17.896-3.038 23.43-3.059zm29.949 0c5.155.066 12.361 1.067 22.568 3.049 8.927 1.733 20.465 3.15 25.64 3.15 11.133 0 12.845 3.043 1.917 3.405l-7.494.248 7.889 1.082c6.925.95 7.085 1.327.92 2.168-.796.108-1.979.73-2.63 1.38-.65.651 2.173 1.184 6.274 1.184 5.07 0 7.11.563 6.373 1.756-.686 1.11-4.051 1.438-9.168.893-5.384-.574-6.765-.422-4.137.455 2.17.724 7.105 1.386 10.967 1.472 8.508.19 6.899 2.817-2.287 3.733-5.128.51-4.61.679 2.762.894 4.99.146 9.072.976 9.072 1.844 0 .868-4.082 1.696-9.072 1.842l-9.074.265 9.466 1.047c5.208.576 8.404 1.25 7.102 1.496-1.302.246-3.61.32-5.13.166-1.518-.154-2.759.473-2.759 1.395s3.017 1.774 6.705 1.893c3.689.118 5.11.522 3.157.898-5.223 1.006-4.32 3.325 1.578 4.057 2.82.35-.198.847-6.707 1.103l-11.834.465 13.412 1.885c12.577 1.767 12.97 1.932 6.312 2.666l-7.101.783 6.707.275c3.688.152 6.705.946 6.705 1.764 0 .818-3.017 1.758-6.705 2.09-5.6.504-5.158.65 2.681.88 11.62.342 10.034 3.005-2.287 3.839-7.98.54-7.757.61 2.762.879 14.018.357 15.315 3.366 1.576 3.654l-9.861.207 9.398 1.197c5.17.658 10.317.845 11.44.414 1.123-.43 2.043.002 2.043.963 0 1.121-4.665 1.812-13.02 1.93-14.72.207-13.75.753 3.945 2.224 6.726.56 12.229 1.71 12.229 2.557 0 .934-4.495 1.213-11.44.713-9.051-.652-10.123-.526-5.128.603 3.471.785 8.933 1.468 12.136 1.518 3.204.05 6.263.802 6.8 1.67 1.678 2.716-14.622 1.505-36.292-2.693-23.01-4.46-55.009-5.645-62.855-2.33-2.46 1.039-5.123 1.487-5.918.996-.801-.495-1.446-15.606-1.446-33.881 0-31 .185-33.086 3.053-34.621 1.977-1.058 4.746-1.573 8.756-1.522zm43.23 12.713c-.858-.01-1.775.083-2.543.283-1.535.4-.66.753 1.944.785 2.603.033 3.86-.296 2.79-.728-.533-.216-1.333-.33-2.19-.34zm15.97 23.672c-.716 0-1.431.11-1.974.328-1.084.438-.196.795 1.973.795 2.17 0 3.056-.357 1.97-.795-.541-.219-1.255-.328-1.97-.328z" style="fill:#902b03"/><path style="fill:#5256fd;fill-opacity:1" d="M63.352 138.064c-.125-.767-.272-2.29-.326-3.384l-.098-1.989h22.494l.084.398c.153.716.453 4.014.453 4.982v.946l-.663.106c-.365.058-5.4.157-11.19.22l-10.527.116-.227-1.395zM39.993 139.365c-.002-.025-.272-1.516-.6-3.315-.327-1.799-.568-3.3-.534-3.336.034-.036 4.967.015 10.963.113 8.002.131 10.935.234 11.03.387.07.114.263 1.376.428 2.804.165 1.427.338 2.774.384 2.993l.083.398H50.872c-5.981 0-10.877-.02-10.879-.044zM88.964 130.619c-1.213-.079-1.414-.321-1.417-1.718-.003-1.44-.272-1.94-1.077-2.008-.976-.082-1.125.226-.886 1.828.109.733.198 1.45.198 1.591 0 .224-1.556.258-11.642.258H62.497l-.092-1.474c-.107-1.716-.324-2.238-.93-2.238-.62 0-.795.483-.795 2.198v1.514H38.229v-3.535h4.685c3.005 0 4.684-.064 4.684-.177 0-.116 4.42-.177 12.905-.177s12.905.06 12.905.177c0 .254 6.658.238 6.815-.017.127-.205 21.683-.227 26.86-.027l2.652.103-1.936.331c-1.064.183-2.026.407-2.136.499-.608.505-1.918.75-4.767.892-1.653.083-4.198.27-5.657.417-1.458.146-2.868.268-3.134.271-.382.004-.557.152-.843.713-.298.584-.444.701-.843.674l-1.455-.095zM145.379 130.043c-.373-.664-.418-.686-1.574-.792a69.91 69.91 0 0 1-2.604-.304 33.225 33.225 0 0 0-2.563-.244c-1.35-.058-4.03-.44-7.601-1.084-1.41-.254-2.922-.512-3.36-.573-1.097-.154 10.44-.365 19.917-.365 5.8 0 7.838.053 7.838.204 0 .152.772.163 3.05.044 6.924-.362 38.902-.121 40.04.302.35.13.397.272.397 1.183 0 .845-.073 1.101-.398 1.403-.724.673-2.023.753-12.186.753h-9.69v-1.406c0-1.726-.236-2.345-.868-2.27-.643.075-.894.72-.897 2.306l-.003 1.37h-23.335l-.003-1.37c-.003-1.586-.253-2.231-.897-2.307-.579-.068-.867.524-.87 1.785-.005 1.827.014 1.812-2.49 1.959l-1.52.089-.384-.683zM150.836 139.365c0-.025.12-.72.267-1.547.147-.826.318-2.318.38-3.315l.114-1.812H174.4l-.11 1.9c-.099 1.672-.284 3.109-.57 4.42l-.088.398h-11.399c-6.269 0-11.398-.02-11.398-.044zM154.85 146.781c-.752-1.124-3.363-5.789-3.28-5.855.034-.027.658.014 1.387.09.73.076 5.63.144 10.89.15l9.563.01-.147 1.017c-.441 3.066-.74 4.798-.86 4.992-.268.434-1.807.52-9.31.518l-7.63-.002-.614-.92zM158.957 155.319c-.01-1.086-.077-1.266-1.214-3.27l-1.203-2.122 2.407-.05c3.237-.068 12.112.237 12.443.428.231.133.19.526-.316 3.037-.32 1.587-.61 2.914-.646 2.95-.036.035-2.629.09-5.763.12l-5.698.056-.01-1.15zM68.494 161.88l-1.061-3.177 4.71-.063c2.592-.035 4.862-.133 5.046-.218.323-.15.332-.06.247 2.446l-.089 2.602.903-.102c10.681-1.199 19.511-2.078 28.417-2.828 9.481-.8 9.652-.835 10.853-2.302.36-.439.711-.798.78-.798.07 0 .383.359.698.797.315.439.8.915 1.078 1.059.866.448 3.373.771 10.96 1.415 12.074 1.025 19.15 1.78 25.457 2.721 1.215.181 2.237.305 2.271.274.035-.03.105-1.198.158-2.595l.095-2.539 3.201.055c4.157.072 6.704.22 7.007.407.247.153.043 1.052-1.096 4.825l-.364 1.204-9.658-.055c-10.19-.058-10.453-.08-10.453-.86 0-.459-.793-.84-1.207-.582-.163.101-.391.372-.507.602-.117.229-.395.498-.62.597-.26.116-5.11.202-13.517.239l-13.11.058.019-2.618c.02-2.929-.142-3.651-.801-3.558-.697.1-1.023 1.442-.972 4l.044 2.176-12.286-.057c-13.098-.06-13.102-.06-13.432-.928-.186-.489-.826-.724-1.506-.554-.343.086-.442.225-.442.62 0 .308-.121.566-.309.658-.17.082-4.617.174-9.881.204l-9.572.053-1.061-3.177zM122.095 173.698c-1.37-.07-2.67-.223-2.888-.34-.392-.21-.397-.259-.339-3.101.033-1.589.105-2.934.16-2.99.102-.1 26.192-.471 26.293-.373.03.029-.324 1.612-.785 3.52l-.84 3.466-9.555-.027c-5.256-.015-10.677-.085-12.046-.155zM94.214 173.533c-.37-.072-.738-.202-.82-.29-.138-.149-1.099-4.006-1.343-5.393-.1-.565-.065-.65.3-.749.548-.146 13.863-.145 19.726.002l4.64.117v6.252l-2.679.116c-3.548.153-18.968.11-19.824-.055zM75.262 173.705c-1.07-.066-2.108-.207-2.305-.312-.238-.128-.71-1.076-1.4-2.814a511.763 511.763 0 0 0-1.274-3.19l-.235-.57 4.906.088c2.698.048 7.146.135 9.883.192l4.978.103.295 1.174c.252 1.004 1.152 5.252 1.152 5.44 0 .112-13.97.015-16-.11zM52.579 172.279c-1.6-2.405-2.84-4.905-2.527-5.1.312-.197 9.403-.41 14.317-.338l3.779.057 1.12 3.005c.617 1.653 1.124 3.136 1.128 3.296.01.435-.67.48-9.107.613l-7.61.119-1.1-1.652zM47.51 156.204c-1.167-.066-2.29-.175-2.497-.242-.29-.094-.548-.61-1.125-2.248a97.784 97.784 0 0 1-.995-2.94l-.245-.816 10.363.11c5.7.06 10.401.146 10.448.193.164.164 1.503 5.607 1.403 5.707-.326.326-12.747.495-17.352.236zM45.035 147.717c-1.361-.066-2.646-.175-2.855-.243-.297-.096-.463-.431-.76-1.528-.717-2.66-.97-4.056-.769-4.257.406-.405 4.301-.547 12.074-.438 4.326.06 8.164.156 8.527.213.58.092.682.183.831.748.21.8.718 4.448.718 5.158v.524l-7.646-.028c-4.205-.016-8.759-.083-10.12-.149zM79.771 147.697c-.632-.083-4.257-.1-8.056-.04l-6.907.109-.307-1.836a43.358 43.358 0 0 1-.41-3.295l-.105-1.458h10.456c5.75 0 10.456.039 10.456.087 0 .205-2.548 4.616-2.771 4.798-.136.11-.281.379-.323.597-.09.471-.573 1.245-.755 1.211-.07-.013-.646-.091-1.278-.173zM77.35 157.285c-.334-.538-1.635-.713-6.237-.842l-4.248-.12-.166-.635c-.769-2.925-1.389-5.59-1.318-5.66.048-.048 2.887-.143 6.31-.213 3.424-.07 6.765-.177 7.425-.24l1.2-.113-.826 1.647c-1.194 2.376-1.67 3.75-1.807 5.221-.104 1.107-.152 1.246-.333.955zM47.607 162.876c-1.038-2.189-1.708-3.973-1.55-4.13.047-.048 4.47-.03 9.829.039l9.742.125.806 2.58c.443 1.418.876 2.798.963 3.065l.158.486h-18.92l-1.028-2.165zM28.264 146.99c-.66-2.221-1.42-5.447-1.31-5.558.108-.107 11.275-.137 11.382-.03.111.11 1.458 6.224 1.387 6.295-.045.044-2.577.117-5.629.162l-5.547.082-.283-.951zM27.654 139.24c-.614-.073-1.227-.244-1.363-.38-.384-.384-1.353-5.841-1.085-6.109.05-.05 2.68-.033 5.843.038l5.751.129.182.903c.807 4.003.803 4.795-.026 5.268-.467.266-7.401.38-9.302.152zM24.617 128.72v-1.85l1.989.083c1.094.046 3.713.131 5.82.19l3.832.107.116 1.35c.063.743.154 1.49.201 1.66.081.291-.285.31-5.936.31h-6.022v-1.85zM34.075 156.262a73.716 73.716 0 0 1-1.624-.158l-.916-.1-.52-1.271c-.954-2.331-1.845-4.733-1.779-4.795.124-.115 11.202.273 11.312.396.06.068.495 1.261.966 2.651.915 2.702.92 2.999.057 3.24-.424.119-6.155.147-7.496.037zM35.978 164.82c-.49-.627-2.877-5.088-2.917-5.453-.044-.395.026-.432 1.014-.538 1.392-.149 7.776-.181 8.772-.045l.778.107 1.205 2.766c.663 1.521 1.248 2.905 1.3 3.075.09.29-.226.31-4.942.31-3.82 0-5.079-.054-5.21-.221zM39.456 170.669c-1.166-1.767-2.092-3.298-2.058-3.403.078-.236 2.72-.406 6.77-.435l3.023-.022 1.706 3.16c.938 1.737 1.706 3.276 1.706 3.42 0 .33-2.011.491-6.13.491h-2.896l-2.12-3.211zM46.774 180.377c-.773-.9-1.91-2.272-2.527-3.05l-1.12-1.414.954-.141c.525-.078 2.47-.118 4.321-.089 3.96.063 3.897.04 5.131 1.951a49.39 49.39 0 0 0 1.955 2.746c.62.803 1.126 1.5 1.126 1.547 0 .047-1.898.085-4.217.085H48.18l-1.406-1.635zM58.647 190.679c-.584-.068-1.38-.288-1.768-.488-.614-.316-6.248-5.23-6.542-5.706-.07-.113 1.308-.174 3.924-.174l4.032.001 2.475 2.86c1.361 1.574 2.62 3.045 2.797 3.27l.322.409-2.09-.024c-1.15-.014-2.567-.08-3.15-.148zM57.882 180.377c-1.271-1.725-1.974-2.742-2.747-3.978l-.47-.75h16.891l1.544 3.094c.85 1.702 1.545 3.134 1.545 3.182 0 .048-3.5.087-7.779.087h-7.778l-1.206-1.635zM64.077 187.802l-2.813-3.05 1.873-.11c3.21-.189 11.193-.167 11.91.032 1.28.355 1.735.925 4.275 5.337l.483.84H66.891l-2.814-3.05zM69.397 199.147c-.705-.224-1.991-.946-3.624-2.035-2.909-1.94-5.438-3.808-5.443-4.02-.002-.08 1.177-.12 2.62-.088l2.624.057.992.618c.546.34 2.317 1.723 3.936 3.072 2.143 1.787 2.878 2.494 2.703 2.605-.432.273-2.673.15-3.808-.21zM74.272 197.17c-1.614-1.288-3.357-2.715-3.873-3.17-.922-.815-.93-.832-.488-.943.786-.197 10.786-.002 11.301.221.258.111 1.227 1.102 2.153 2.202.926 1.1 2.094 2.457 2.595 3.017l.912 1.016h-9.664l-2.936-2.342zM94.356 208.154c-2.518-.578-6.975-2.574-11.734-5.255l-2.187-1.232 1.127-.099c.62-.054 2.36-.14 3.866-.193l2.74-.093 3.801 3.27c2.09 1.8 3.826 3.39 3.858 3.536.065.301-.363.32-1.471.066zM80.01 204.84c-4.907-2.307-6.132-2.966-5.978-3.216.325-.526 2.565.193 5.104 1.637 2.351 1.337 5.566 3.325 5.682 3.513.235.38-.596.046-4.808-1.934zM87.494 197.068c-2.379-2.575-3.255-3.672-3.077-3.85.188-.188 4.856-.405 8.9-.414l3.91-.009 1.363 3.197c.75 1.758 1.31 3.25 1.246 3.315-.065.064-2.358.139-5.097.165l-4.98.048-2.265-2.452zM80.39 187.824a315.695 315.695 0 0 1-2.086-3.269c-.12-.207 1.094-.245 7.887-.245h8.028l.757 2.166c.416 1.19.94 2.662 1.165 3.27l.408 1.105-7.107-.001-7.107-.001-1.945-3.024zM75.461 179.333c-1.81-3.788-1.792-3.434-.174-3.57.746-.063 4.751-.115 8.901-.115h7.545l.843 3.017c.463 1.66.788 3.072.722 3.138-.067.066-3.815.148-8.33.181l-8.21.06-1.297-2.711zM97.526 187.802a451.328 451.328 0 0 0-1.094-3.27c-.065-.176 2.048-.222 10.19-.222h10.273v6.54H98.539l-1.013-3.048zM97.248 181.833c-.742-.07-1.435-.182-1.54-.246-.17-.105-1.226-3.174-1.506-4.374-.18-.775.325-1.2 1.656-1.392.632-.091 5.624-.167 11.093-.17l9.944-.003v6.364l-9.149-.025c-5.031-.014-9.755-.083-10.498-.154zM118.739 180.052c.06-1.11.154-2.515.208-3.122l.097-1.105 7.543-.04c8.398-.046 15.69.024 16.161.155.426.118.405.319-.34 3.288l-.654 2.607h-3.032c-1.667 0-6.87.053-11.562.118l-8.531.117.11-2.018zM145.179 181.849c-.978-.087-1.155-.155-1.19-.456-.022-.194.259-1.507.625-2.916l.666-2.564 7.064-.136c6.429-.124 11.043-.053 11.043.169 0 .047-.65 1.432-1.442 3.076l-1.442 2.99-7.088-.03c-3.898-.017-7.604-.077-8.236-.133zM146.617 170.477c.369-1.871.674-3.462.677-3.535.014-.306 18.302-.013 19.122.307.356.14.227.622-1.128 4.2l-.92 2.431h-18.421l.67-3.403zM169.819 164.734l.901-3.042c.445-1.502.827-2.745.848-2.763.056-.047 15.982-.14 18.025-.104l1.722.03-.295.75c-.162.414-.744 1.786-1.293 3.05l-.998 2.298-9.502.046c-8.996.043-9.496.029-9.408-.265zM175.32 156.194c-3.125-.158-2.917-.13-2.923-.389-.003-.122.289-1.422.648-2.89l.652-2.667 4.773-.116c8.46-.206 15.85-.15 15.954.12.05.13-.398 1.561-.995 3.181l-1.087 2.946-7.274-.03c-4-.017-8.388-.087-9.749-.155z"/><path style="fill:#5256fd;fill-opacity:1" d="M178.28 156.201c-3.136-.064-5.744-.16-5.797-.212-.052-.052.202-1.337.563-2.855.657-2.76.658-2.76 1.2-2.86.831-.151 19.851-.188 20.001-.039.16.16-.066.944-1.124 3.89l-.81 2.254-4.166-.03a912.313 912.313 0 0 1-9.867-.148zM196.06 156.22c-.648-.059-1.218-.145-1.266-.194-.086-.087 1.559-5.72 1.771-6.064.115-.185 7.439-.042 8.773.171.655.105.681.134.578.65-.06.297-.564 1.677-1.122 3.068l-1.014 2.528-3.27-.027c-1.799-.016-3.801-.075-4.45-.133zM197.902 147.594c-.218-.043-.397-.192-.397-.332 0-.309.783-3.652 1.155-4.933l.269-.923 4.873-.127c2.68-.07 4.906-.095 4.945-.056.083.083-.987 4.006-1.481 5.434l-.337.972-4.315.022c-2.372.011-4.493-.014-4.712-.057zM199.33 139.011c.053-.219.313-1.63.578-3.138.265-1.507.528-2.791.586-2.854.057-.063 2.312-.171 5.01-.241 4.713-.122 4.905-.114 4.906.203 0 .18-.251 1.701-.56 3.379l-.56 3.049h-10.056l.096-.398zM200.687 128.802v-1.767h10.253v3.535h-10.253v-1.768zM175.663 138.658c.056-.414.223-1.785.372-3.048.149-1.263.351-2.377.45-2.475.237-.238 21.53-.358 21.764-.123.14.14-.637 4.717-1.032 6.088-.084.29-.755.309-10.872.309h-10.782l.1-.751zM175.275 147.764c-.896-.063-.928-.083-.928-.59 0-.476.569-4.343.811-5.511l.101-.486h10.77c7.37 0 10.769.058 10.769.184 0 .157-1.177 4.9-1.522 6.135l-.11.398-9.482-.033c-5.214-.018-9.898-.061-10.409-.097zM191.058 164.874c-.057-.092.51-1.524 1.258-3.182l1.362-3.014h4.477c2.462 0 4.476.039 4.476.087 0 .048-.695 1.48-1.544 3.182l-1.545 3.095h-4.19c-2.446 0-4.233-.07-4.294-.168zM187.517 173.72c-.759-.09-.876-.155-.826-.458.031-.195.793-1.706 1.692-3.36l1.635-3.004 4.186-.048c2.301-.026 4.185.006 4.185.072 0 .177-2.767 4.43-3.569 5.485-.973 1.281-1.56 1.48-4.257 1.446-1.19-.016-2.56-.075-3.046-.133zM166.83 172.772l1.303-3.4.883-2.298 3.947-.148c3.72-.14 14.176.065 14.392.282.13.13-.9 2.115-2.268 4.374l-1.124 1.856-1.759.11c-.967.061-4.916.16-8.776.218l-7.017.107.42-1.101zM164.1 178.817l1.6-3.195 7.903.064c4.735.039 8.066.135 8.31.241.398.174.376.22-1.07 2.291a539.602 539.602 0 0 1-2.076 2.954l-.599.84h-15.667l1.6-3.195zM180.71 182.11c0-.064.964-1.548 2.14-3.3l2.14-3.183 3.332.055c3.67.06 3.904.125 3.47.962-.44.852-3.655 4.478-4.416 4.982-.694.46-.81.476-3.69.536-1.637.035-2.975.01-2.975-.053zM173.652 190.386c.25-.28 1.312-1.477 2.362-2.662 2.114-2.389 2.919-3.037 4.033-3.253 1.005-.194 4.73-.201 4.73-.008 0 .315-5.49 5.502-6.22 5.877-.638.328-1.138.405-3.061.472l-2.298.08.454-.506zM159.277 190.72c-.948-.033-1.724-.097-1.724-.144 0-.123 1.477-2.55 2.775-4.558l1.125-1.74 6.668.071c3.667.04 6.807.134 6.977.212.722.328.182 1.09-3.361 4.743l-1.5 1.547-4.619-.037c-2.54-.02-5.393-.063-6.341-.095zM150.688 199.361c.033-.083 1.213-1.551 2.623-3.262l2.563-3.11 5.48.01c3.014.005 5.664.06 5.89.124.386.109.356.16-.53.926-.518.446-2.24 1.858-3.83 3.138l-2.888 2.326h-4.683c-2.576 0-4.657-.068-4.625-.152zM163.86 199.38c-.104-.176 5.534-4.856 6.792-5.636 1.101-.684 2.721-1.021 4.015-.837l.762.109-.4.425c-.87.926-6.155 4.248-8.72 5.48-1.153.554-2.27.763-2.45.46zM137.473 198.231c.327-.705 1.014-2.176 1.527-3.27l.933-1.989 6.114.018c3.363.01 6.304.07 6.536.136.415.116.409.133-.442 1.19-.475.589-1.699 1.997-2.72 3.129l-1.856 2.057-5.343.005-5.343.005.594-1.282zM141.89 187.625l1.12-3.226 8.067-.046 8.067-.046-.767 1.195a897.65 897.65 0 0 1-2.116 3.272l-1.35 2.077h-14.14l1.12-3.226zM118.662 187.58v-3.27h22.244l-1.087 3.27-1.087 3.27h-20.07v-3.27zM120.322 199.367c-1.516-.208-1.522-.224-1.454-3.321.033-1.48.126-2.758.207-2.838.22-.22 18.17-.285 18.388-.067.12.12-.308 1.165-1.303 3.187l-1.482 3.008h-2.234c-1.229 0-4.255.035-6.726.077-2.47.043-4.9.022-5.397-.047zM120.784 208.184c-2.051-.217-1.984-.096-1.916-3.456.033-1.588.12-2.948.194-3.022.073-.074 3.096-.167 6.717-.208 7.217-.081 7.379-.061 7.142.884-.062.246-1.014 1.67-2.115 3.165l-2.003 2.716-3.435.021c-1.89.012-3.952-.033-4.584-.1zM102.06 198.762c-.18-.414-.814-1.857-1.409-3.207-.594-1.35-1.08-2.484-1.08-2.52 0-.125 16.71-.054 16.908.073.132.084.249 1.228.333 3.267l.13 3.138h-14.556l-.327-.751zM106.82 206.074c-2.06-2.847-2.925-4.227-2.755-4.397.187-.188 7.158-.277 10.134-.13l2.519.124v6.294l-1.635.1c-.9.056-2.753.147-4.118.204l-2.483.104-1.663-2.3zM113.501 211.921a36.7 36.7 0 0 1-2.175-1.234l-.884-.56 2.773-.004c3.438-.004 3.68.07 3.68 1.129 0 1.012-.327 1.343-1.33 1.343-.551 0-1.142-.193-2.064-.674zM119.047 212.44c-.13-.081-.278-.469-.33-.86-.077-.57-.021-.787.278-1.086.354-.354.542-.373 3.424-.357 1.677.01 3.236.07 3.464.134.4.113.403.127.088.412-.474.429-2.297 1.3-3.407 1.628-1.019.3-3.125.378-3.517.13zM133.621 204.93l2.24-3.472 2.317-.045c2.928-.056 5.734.002 6.25.13.607.15.48.53-.443 1.326-1.583 1.364-5.258 3.9-6.694 4.621-1.399.702-1.494.723-3.673.817l-2.237.097 2.24-3.473zM141.467 207.653c2.836-2.426 6.556-5.395 7.132-5.693.905-.466 3.459-.724 5.684-.574 2.581.175 2.66.234 1.358 1.024-1.598.971-6.855 3.484-9.478 4.53-2.202.88-4.123 1.412-5.05 1.4-.412-.005-.388-.052.354-.687zM156.422 204.324c1.994-1.425 4.371-2.74 5.33-2.947 1.446-.313.255.515-3.268 2.272-2.505 1.25-3.172 1.468-2.062.675zM128.387 211.267c.41-.494 1.591-.996 2.584-1.099.522-.054.95-.054.95 0 0 .111-2.48 1.072-3.257 1.262-.465.113-.493.097-.277-.163zM101.736 208.165c-.958-.19-2.255-.841-3.933-1.979-1.978-1.34-4.443-3.193-5.001-3.76-.448-.454-.468-.526-.216-.777.236-.236.89-.278 4.366-.279h4.09l2.438 3.49 2.44 3.492-1.717-.02c-.943-.01-2.054-.086-2.467-.167zM106.907 210.854c-1.4-.568-1.524-.653-1.03-.7.834-.081 1.881.256 2.353.758.229.244.383.476.342.516-.04.04-.79-.219-1.665-.574zM148.062 134.813l-1.095-1.945h1.056c.712 0 1.085.076 1.146.234.049.128.066 1.003.038 1.944l-.05 1.711-1.095-1.944zM87.944 134.664c-.05-1.68.01-1.796.945-1.796h.785l-.568 1.017c-1.215 2.175-1.122 2.113-1.162.78z"/></svg>